<svg width="28" height="29" viewBox="0 0 28 29" fill="none" xmlns="http://www.w3.org/2000/svg">
<path fill-rule="evenodd" clip-rule="evenodd" d="M13.9987 15.7962C12.8273 15.7962 11.7039 15.3309 10.8756 14.5026C10.0474 13.6743 9.58203 12.5509 9.58203 11.3796C9.58203 10.2082 10.0474 9.08479 10.8756 8.2565C11.7039 7.42822 12.8273 6.96289 13.9987 6.96289C15.1701 6.96289 16.2935 7.42822 17.1218 8.2565C17.95 9.08479 18.4154 10.2082 18.4154 11.3796C18.4154 11.9596 18.3011 12.5339 18.0792 13.0697C17.8572 13.6056 17.5319 14.0925 17.1218 14.5026C16.7116 14.9127 16.2247 15.2381 15.6889 15.46C15.153 15.682 14.5787 15.7962 13.9987 15.7962ZM13.0149 25.3948C13.6154 26.1219 13.9987 26.5462 13.9987 26.5462C13.9987 26.5462 14.382 26.1219 14.9825 25.3948C17.1538 22.7656 22.1654 16.1777 22.1654 11.3796C22.1654 9.21362 21.3049 7.1364 19.7734 5.60485C18.2419 4.0733 16.1646 3.21289 13.9987 3.21289C11.8328 3.21289 9.75554 4.0733 8.22399 5.60485C6.69245 7.1364 5.83203 9.21362 5.83203 11.3796C5.83203 16.1777 10.8436 22.7656 13.0149 25.3948ZM13.9987 24.2292C14.0351 24.1846 14.0723 24.1391 14.1101 24.0925C14.8563 23.173 15.849 21.8876 16.8386 20.4208C17.8311 18.9498 18.8021 17.3234 19.5204 15.7201C20.2475 14.097 20.6654 12.6073 20.6654 11.3796C20.6654 9.61145 19.963 7.91575 18.7127 6.66551C17.4625 5.41527 15.7668 4.71289 13.9987 4.71289C12.2306 4.71289 10.5349 5.41527 9.28465 6.66551C8.03441 7.91575 7.33203 9.61145 7.33203 11.3796C7.33203 12.6073 7.74986 14.097 8.47698 15.7201C9.19529 17.3234 10.1663 18.9498 11.1588 20.4208C12.1484 21.8876 13.141 23.173 13.8873 24.0925C13.9251 24.1391 13.9622 24.1846 13.9987 24.2292ZM11.9363 13.442C12.4833 13.9889 13.2251 14.2962 13.9987 14.2962C14.3817 14.2962 14.761 14.2208 15.1149 14.0742C15.4687 13.9276 15.7903 13.7128 16.0611 13.442C16.3319 13.1711 16.5468 12.8496 16.6933 12.4957C16.8399 12.1419 16.9154 11.7626 16.9154 11.3796C16.9154 10.606 16.6081 9.86414 16.0611 9.31716C15.5141 8.77018 14.7722 8.46289 13.9987 8.46289C13.2251 8.46289 12.4833 8.77018 11.9363 9.31716C11.3893 9.86414 11.082 10.606 11.082 11.3796C11.082 12.1531 11.3893 12.895 11.9363 13.442Z" fill="#979797"/>
</svg>
