<svg width="28" height="29" viewBox="0 0 28 29" fill="none" xmlns="http://www.w3.org/2000/svg">
<path d="M21.8387 17.5476C22.247 16.5559 22.4687 15.4943 22.4687 14.3276C22.4687 13.4876 22.3404 12.6826 22.1187 11.9359C21.3604 12.1109 20.567 12.2043 19.7387 12.2043C18.0423 12.2061 16.3704 11.8001 14.8638 11.0204C13.3572 10.2407 12.0602 9.11023 11.082 7.72428C10.0356 10.2562 8.06168 12.2927 5.5637 13.4176C5.51703 13.7093 5.51703 14.0243 5.51703 14.3276C5.51703 15.4414 5.73642 16.5444 6.16266 17.5734C6.5889 18.6025 7.21366 19.5375 8.00125 20.3251C9.59187 21.9157 11.7492 22.8093 13.9987 22.8093C15.2237 22.8093 16.402 22.5409 17.4637 22.0626C18.1287 23.3343 18.432 23.9643 18.4087 23.9643C16.4954 24.6059 15.0137 24.9209 13.9987 24.9209C11.1754 24.9209 8.48036 23.8126 6.49703 21.8176C5.29069 20.615 4.39396 19.1378 3.8837 17.5126H2.33203V12.2043H3.6037C3.98898 10.3289 4.87477 8.59276 6.16709 7.18014C7.4594 5.76752 9.11002 4.73109 10.9438 4.18083C12.7776 3.63058 14.7262 3.58702 16.5827 4.05477C18.4393 4.52253 20.1345 5.48416 21.4887 6.83762C22.959 8.30208 23.9618 10.1697 24.3704 12.2043H25.6654V17.5126H25.5954L21.442 21.3276L15.2587 20.6276V18.6793H20.8937L21.8387 17.5476ZM10.8137 14.0593C11.1637 14.0593 11.502 14.1993 11.747 14.4559C11.9933 14.7042 12.1314 15.0396 12.1314 15.3893C12.1314 15.7389 11.9933 16.0744 11.747 16.3226C11.502 16.5676 11.1637 16.7076 10.8137 16.7076C10.0787 16.7076 9.4837 16.1243 9.4837 15.3893C9.4837 14.6543 10.0787 14.0593 10.8137 14.0593ZM17.172 14.0593C17.907 14.0593 18.4904 14.6543 18.4904 15.3893C18.4904 16.1243 17.907 16.7076 17.172 16.7076C16.437 16.7076 15.842 16.1243 15.842 15.3893C15.842 15.0365 15.9822 14.6983 16.2316 14.4488C16.481 14.1994 16.8193 14.0593 17.172 14.0593Z" fill="#367BBF"/>
</svg>
