<svg width="28" height="29" viewBox="0 0 28 29" fill="none" xmlns="http://www.w3.org/2000/svg">
<path d="M21.8387 18.0994C22.247 17.1077 22.4687 16.046 22.4687 14.8794C22.4687 14.0394 22.3404 13.2344 22.1187 12.4877C21.3604 12.6627 20.567 12.756 19.7387 12.756C18.0423 12.7579 16.3704 12.3518 14.8638 11.5721C13.3572 10.7924 12.0602 9.66199 11.082 8.27604C10.0356 10.8079 8.06168 12.8445 5.5637 13.9694C5.51703 14.261 5.51703 14.576 5.51703 14.8794C5.51703 15.9932 5.73642 17.0961 6.16266 18.1252C6.5889 19.1542 7.21366 20.0892 8.00125 20.8768C9.59187 22.4674 11.7492 23.361 13.9987 23.361C15.2237 23.361 16.402 23.0927 17.4637 22.6144C18.1287 23.886 18.432 24.516 18.4087 24.516C16.4954 25.1577 15.0137 25.4727 13.9987 25.4727C11.1754 25.4727 8.48036 24.3644 6.49703 22.3694C5.29069 21.1667 4.39396 19.6895 3.8837 18.0644H2.33203V12.756H3.6037C3.98898 10.8806 4.87477 9.14452 6.16709 7.7319C7.4594 6.31927 9.11002 5.28285 10.9438 4.73259C12.7776 4.18233 14.7262 4.13877 16.5827 4.60653C18.4393 5.07429 20.1345 6.03591 21.4887 7.38937C22.959 8.85384 23.9618 10.7215 24.3704 12.756H25.6654V18.0644H25.5954L21.442 21.8794L15.2587 21.1794V19.231H20.8937L21.8387 18.0994ZM10.8137 14.611C11.1637 14.611 11.502 14.751 11.747 15.0077C11.9933 15.2559 12.1314 15.5914 12.1314 15.941C12.1314 16.2907 11.9933 16.6261 11.747 16.8744C11.502 17.1194 11.1637 17.2594 10.8137 17.2594C10.0787 17.2594 9.4837 16.676 9.4837 15.941C9.4837 15.206 10.0787 14.611 10.8137 14.611ZM17.172 14.611C17.907 14.611 18.4904 15.206 18.4904 15.941C18.4904 16.676 17.907 17.2594 17.172 17.2594C16.437 17.2594 15.842 16.676 15.842 15.941C15.842 15.5883 15.9822 15.25 16.2316 15.0006C16.481 14.7512 16.8193 14.611 17.172 14.611Z" fill="#979797"/>
</svg>
