<svg width="63" height="25" viewBox="0 0 63 25" fill="none" xmlns="http://www.w3.org/2000/svg">
<path opacity="0.5" fill-rule="evenodd" clip-rule="evenodd" d="M55.5162 19.4004H10.484C6.31434 19.4004 3 16.3004 3 12.4004C3 8.50039 6.31434 5.40039 10.484 5.40039L55.5162 5.40039C59.6859 5.40039 63.0002 8.50039 63.0002 12.4004C63.0002 16.3004 59.6859 19.4004 55.5162 19.4004Z" fill="#FFB0B0"/>
<g filter="url(#filter0_d_333_71292)">
<path d="M12 2.89258C10.625 2.89258 9.32812 3.1582 8.10938 3.68945C6.89062 4.20508 5.82812 4.91602 4.92188 5.82227C4.01562 6.72852 3.30469 7.79102 2.78906 9.00977C2.25781 10.2285 1.99219 11.5254 1.99219 12.9004C1.99219 14.2754 2.25781 15.5723 2.78906 16.791C3.30469 18.0098 4.01562 19.0723 4.92188 19.9785C5.82812 20.8848 6.89062 21.5957 8.10938 22.1113C9.32812 22.6426 10.625 22.9082 12 22.9082C13.375 22.9082 14.6719 22.6426 15.8906 22.1113C17.1094 21.5957 18.1719 20.8848 19.0781 19.9785C19.9844 19.0723 20.6953 18.0098 21.2109 16.791C21.7422 15.5723 22.0078 14.2754 22.0078 12.9004C22.0078 11.5254 21.7422 10.2285 21.2109 9.00977C20.6953 7.79102 19.9844 6.72852 19.0781 5.82227C18.1719 4.91602 17.1094 4.20508 15.8906 3.68945C14.6719 3.1582 13.375 2.89258 12 2.89258ZM16.9922 16.4863L15.5859 17.8926L12 14.3066L8.41406 17.8926L7.00781 16.4863L10.5938 12.9004L7.00781 9.31445L8.41406 7.9082L12 11.4941L15.5859 7.9082L16.9922 9.31445L13.4062 12.9004L16.9922 16.4863Z" fill="#EB5757"/>
</g>
<defs>
<filter id="filter0_d_333_71292" x="0.992188" y="2.39258" width="22.0156" height="22.0156" filterUnits="userSpaceOnUse" color-interpolation-filters="sRGB">
<feFlood flood-opacity="0" result="BackgroundImageFix"/>
<feColorMatrix in="SourceAlpha" type="matrix" values="0 0 0 0 0 0 0 0 0 0 0 0 0 0 0 0 0 0 127 0" result="hardAlpha"/>
<feOffset dy="0.5"/>
<feGaussianBlur stdDeviation="0.5"/>
<feColorMatrix type="matrix" values="0 0 0 0 0 0 0 0 0 0 0 0 0 0 0 0 0 0 0.23 0"/>
<feBlend mode="normal" in2="BackgroundImageFix" result="effect1_dropShadow_333_71292"/>
<feBlend mode="normal" in="SourceGraphic" in2="effect1_dropShadow_333_71292" result="shape"/>
</filter>
</defs>
</svg>
