<svg width="40" height="40" viewBox="0 0 40 40" fill="none" xmlns="http://www.w3.org/2000/svg">
<rect width="40" height="40" rx="10" fill="#F9F2FF"/>
<g clip-path="url(#clip0_3564_122324)">
<g clip-path="url(#clip1_3564_122324)">
<path d="M27 8H13C11.6744 8.00159 10.4036 8.52888 9.46622 9.46622C8.52888 10.4036 8.00159 11.6744 8 13L8 27C8.00159 28.3256 8.52888 29.5964 9.46622 30.5338C10.4036 31.4711 11.6744 31.9984 13 32H27C28.3256 31.9984 29.5964 31.4711 30.5338 30.5338C31.4711 29.5964 31.9984 28.3256 32 27V13C31.9984 11.6744 31.4711 10.4036 30.5338 9.46622C29.5964 8.52888 28.3256 8.00159 27 8ZM13 10H27C27.7956 10 28.5587 10.3161 29.1213 10.8787C29.6839 11.4413 30 12.2044 30 13V27C29.9983 27.4455 29.8957 27.8848 29.7 28.285L20.537 19.122C20.0727 18.6576 19.5214 18.2892 18.9147 18.0378C18.308 17.7864 17.6577 17.6571 17.001 17.6571C16.3443 17.6571 15.694 17.7864 15.0873 18.0378C14.4806 18.2892 13.9293 18.6576 13.465 19.122L10 22.586V13C10 12.2044 10.3161 11.4413 10.8787 10.8787C11.4413 10.3161 12.2044 10 13 10ZM13 30C12.2044 30 11.4413 29.6839 10.8787 29.1213C10.3161 28.5587 10 27.7956 10 27V25.414L14.878 20.536C15.1566 20.2572 15.4874 20.0361 15.8515 19.8852C16.2156 19.7343 16.6059 19.6566 17 19.6566C17.3941 19.6566 17.7844 19.7343 18.1485 19.8852C18.5126 20.0361 18.8434 20.2572 19.122 20.536L28.285 29.7C27.8848 29.8957 27.4455 29.9983 27 30H13Z" fill="#935ED6"/>
<path d="M24 18.5C24.6922 18.5 25.3689 18.2947 25.9445 17.9101C26.5201 17.5256 26.9687 16.9789 27.2336 16.3394C27.4985 15.6999 27.5678 14.9961 27.4327 14.3172C27.2977 13.6383 26.9644 13.0146 26.4749 12.5251C25.9854 12.0356 25.3617 11.7023 24.6828 11.5673C24.0039 11.4322 23.3001 11.5015 22.6606 11.7664C22.0211 12.0313 21.4744 12.4799 21.0899 13.0555C20.7053 13.6311 20.5 14.3078 20.5 15C20.5 15.9283 20.8687 16.8185 21.5251 17.4749C22.1815 18.1313 23.0717 18.5 24 18.5ZM24 13.5C24.2967 13.5 24.5867 13.588 24.8334 13.7528C25.08 13.9176 25.2723 14.1519 25.3858 14.426C25.4994 14.7001 25.5291 15.0017 25.4712 15.2926C25.4133 15.5836 25.2704 15.8509 25.0607 16.0607C24.8509 16.2704 24.5836 16.4133 24.2926 16.4712C24.0017 16.5291 23.7001 16.4994 23.426 16.3858C23.1519 16.2723 22.9176 16.08 22.7528 15.8334C22.588 15.5867 22.5 15.2967 22.5 15C22.5 14.6022 22.658 14.2206 22.9393 13.9393C23.2206 13.658 23.6022 13.5 24 13.5Z" fill="#935ED6"/>
</g>
</g>
<defs>
<clipPath id="clip0_3564_122324">
<rect width="24" height="24" fill="white" transform="translate(8 8)"/>
</clipPath>
<clipPath id="clip1_3564_122324">
<rect width="24" height="24" fill="white" transform="translate(8 8)"/>
</clipPath>
</defs>
</svg>
