<svg width="18" height="18" viewBox="0 0 18 18" fill="none" xmlns="http://www.w3.org/2000/svg">
<g clip-path="url(#clip0_706_269731)">
<path d="M9.51094 13.1595C9.37979 13.3029 9.19437 13.3846 9 13.3846C8.80563 13.3846 8.62021 13.3029 8.48906 13.1595L4.79675 9.12099C4.53875 8.83881 4.55836 8.4009 4.84054 8.1429C5.12273 7.8849 5.56064 7.90451 5.81864 8.1867L8.30769 10.9091V0.692308C8.30769 0.309957 8.61765 0 9 0C9.38235 0 9.69231 0.309957 9.69231 0.692308V10.9091L12.1814 8.1867C12.4394 7.90451 12.8773 7.8849 13.1595 8.1429C13.4416 8.4009 13.4612 8.83881 13.2033 9.12099L9.51094 13.1595Z" fill="#935ED6"/>
<path d="M1.38462 11.7692C1.38462 11.3869 1.07466 11.0769 0.692309 11.0769C0.309958 11.0769 4.89249e-07 11.3869 4.89249e-07 11.7692V11.8199C-1.81625e-05 13.0823 -3.31975e-05 14.0998 0.107561 14.9001C0.219268 15.7309 0.458247 16.4305 1.01386 16.9861C1.56948 17.5418 2.26905 17.7807 3.09992 17.8924C3.9002 18 4.91773 18 6.18012 18H11.8199C13.0823 18 14.0998 18 14.9001 17.8924C15.7309 17.7807 16.4305 17.5418 16.9861 16.9861C17.5418 16.4305 17.7807 15.7309 17.8924 14.9001C18 14.0998 18 13.0823 18 11.8199V11.7692C18 11.3869 17.69 11.0769 17.3077 11.0769C16.9253 11.0769 16.6154 11.3869 16.6154 11.7692C16.6154 13.0942 16.6139 14.0183 16.5202 14.7156C16.4291 15.3929 16.2625 15.7516 16.0071 16.0071C15.7516 16.2625 15.3929 16.4291 14.7156 16.5202C14.0183 16.6139 13.0942 16.6154 11.7692 16.6154H6.23077C4.90577 16.6154 3.98167 16.6139 3.28442 16.5202C2.60709 16.4291 2.24841 16.2625 1.99293 16.0071C1.73746 15.7516 1.57089 15.3929 1.47983 14.7156C1.38609 14.0183 1.38462 13.0942 1.38462 11.7692Z" fill="#935ED6"/>
</g>
<defs>
<clipPath id="clip0_706_269731">
<rect width="18" height="18" fill="white"/>
</clipPath>
</defs>
</svg>
