<svg width="14" height="14" viewBox="0 0 14 14" fill="none" xmlns="http://www.w3.org/2000/svg">
<path fill-rule="evenodd" clip-rule="evenodd" d="M6.9987 0.335938C5.68016 0.335938 4.39123 0.726931 3.2949 1.45947C2.19857 2.19202 1.34409 3.23321 0.839504 4.45138C0.33492 5.66955 0.202898 7.01 0.460132 8.30321C0.717367 9.59641 1.35231 10.7843 2.28466 11.7166C3.21701 12.649 4.40489 13.2839 5.6981 13.5412C6.99131 13.7984 8.33175 13.6664 9.54992 13.1618C10.7681 12.6572 11.8093 11.8027 12.5418 10.7064C13.2744 9.61008 13.6654 8.32115 13.6654 7.0026C13.6654 6.12712 13.4929 5.26022 13.1579 4.45138C12.8229 3.64254 12.3318 2.90762 11.7127 2.28856C11.0937 1.6695 10.3588 1.17844 9.54992 0.843407C8.74109 0.508376 7.87418 0.335938 6.9987 0.335938ZM6.9987 12.3359C5.94387 12.3359 4.91272 12.0231 4.03566 11.4371C3.1586 10.8511 2.47501 10.0181 2.07134 9.04358C1.66768 8.06904 1.56206 6.99669 1.76785 5.96212C1.97363 4.92756 2.48158 3.97725 3.22746 3.23137C3.97334 2.48549 4.92365 1.97754 5.95822 1.77175C6.99278 1.56596 8.06514 1.67158 9.03968 2.07525C10.0142 2.47891 10.8472 3.1625 11.4332 4.03956C12.0192 4.91662 12.332 5.94777 12.332 7.0026C12.332 8.41709 11.7701 9.77365 10.7699 10.7738C9.76974 11.774 8.41319 12.3359 6.9987 12.3359ZM6.9987 10.3333C7.36689 10.3333 7.66536 10.0349 7.66536 9.66667C7.66536 9.29848 7.36689 9 6.9987 9C6.63051 9 6.33203 9.29848 6.33203 9.66667C6.33203 10.0349 6.63051 10.3333 6.9987 10.3333ZM6.52729 3.86714C6.65232 3.74211 6.82189 3.67188 6.9987 3.67188C7.17551 3.67188 7.34508 3.74211 7.4701 3.86714C7.59513 3.99216 7.66536 4.16173 7.66536 4.33854V7.67188C7.66536 7.84869 7.59513 8.01825 7.4701 8.14328C7.34508 8.2683 7.17551 8.33854 6.9987 8.33854C6.82189 8.33854 6.65232 8.2683 6.52729 8.14328C6.40227 8.01825 6.33203 7.84869 6.33203 7.67188V4.33854C6.33203 4.16173 6.40227 3.99216 6.52729 3.86714Z" fill="#BF3939"/>
</svg>
