<svg width="52" height="68" viewBox="0 0 52 68" fill="none" xmlns="http://www.w3.org/2000/svg">
<path d="M50.7443 36.2595C50.7443 39.9778 49.5957 43.4471 47.6067 46.3866C43.9303 51.8247 37.3766 55.4448 29.9049 55.4448C28.1694 55.4448 26.4819 55.2484 24.8697 54.8806L12.5798 57.8886C12.3446 57.9457 12.1231 57.9092 11.9381 57.8087L8.4854 56.7147L8.23193 56.6347L8.87589 56.3241L12.7556 54.449L14.7445 50.8974L15.288 49.929C11.4494 46.4505 9.06999 41.6108 9.06999 36.2595C9.06999 25.6642 18.3982 17.0742 29.9049 17.0742C41.4115 17.0742 50.7443 25.6642 50.7443 36.2595Z" fill="#8C79B5" stroke="black" stroke-width="0.578893" stroke-linecap="round" stroke-linejoin="round"/>
<g style="mix-blend-mode:multiply">
<path d="M47.6072 46.3909C43.9307 51.829 37.377 55.4491 29.9053 55.4491C28.1698 55.4491 26.4823 55.2527 24.8701 54.8849L12.5802 57.8929C12.345 57.95 12.1235 57.9135 11.9385 57.813L8.48584 56.719L14.2084 50.9954L14.745 50.9017L43.5105 45.8793C43.5105 45.8793 48.58 42.6977 47.6072 46.3909Z" fill="#C1BBD2"/>
</g>
<path d="M31.2262 16.484C29.6323 16.1232 27.9653 15.9336 26.2504 15.9336C20.448 15.9336 15.1981 18.1171 11.4212 21.6412C10.0785 22.8951 8.92302 24.318 7.99134 25.8711C6.34949 28.6119 5.41553 31.766 5.41553 35.1189C5.41553 38.289 6.24901 41.2787 7.72874 43.9121C8.74491 45.7256 10.0671 47.37 11.6336 48.7884L10.2497 51.2596L7.92055 55.4187C7.53235 56.113 8.15576 56.9353 8.92759 56.748L21.2175 53.74C22.8297 54.1077 24.5172 54.3041 26.2527 54.3041C32.5598 54.3041 38.2115 51.7256 42.0318 47.6532C45.1854 44.2913 47.0921 39.9106 47.0921 35.1189C47.0921 26.1018 40.3375 18.5373 31.2285 16.484H31.2262Z" fill="#E0D5F2" stroke="black" stroke-width="0.578893" stroke-linecap="round" stroke-linejoin="round"/>
<g style="mix-blend-mode:multiply">
<path d="M31.2264 16.484C30.8633 17.5689 30.3472 18.631 29.6759 19.6382C25.9286 25.2499 18.7241 27.0154 13.5862 23.5803C12.7595 23.0276 12.0357 22.3744 11.4214 21.6412C15.1983 18.1171 20.4482 15.9336 26.2506 15.9336C27.9655 15.9336 29.6325 16.1232 31.2264 16.484Z" fill="#C1BBD2"/>
</g>
<path d="M23.8464 18.9938C20.7933 24.2789 14.7351 26.5925 9.79585 24.5758L9.74561 24.5552L9.39852 24.4022L7.68359 23.6485L6.80443 23.2602L7.22917 23.0227C5.36353 21.4559 4.1761 19.2496 3.74679 16.8149C3.73081 16.7258 3.71711 16.6368 3.70341 16.5477C3.29922 13.8732 3.80388 10.9474 5.33156 8.30258C7.98273 3.70725 12.9151 1.35934 17.4023 2.15187L16.9113 1.65625C16.9113 1.65625 16.925 1.66082 16.9319 1.66539L17.642 1.97372C17.642 1.97372 17.658 1.98286 17.6672 1.98514L19.0441 2.58354L19.2017 2.65206L19.9804 2.99008L19.9872 2.99465C20.1813 3.08829 20.3708 3.19336 20.5604 3.3007C21.3825 3.77577 22.1109 4.35589 22.7411 5.02052C26.0249 8.47844 26.614 14.1998 23.8464 18.9938Z" fill="white" stroke="black" stroke-width="0.578893" stroke-linejoin="round"/>
<path d="M21.5308 17.9899C18.5211 23.2042 12.5817 25.5247 7.68349 23.6496C7.38435 23.5377 7.09206 23.4075 6.80434 23.2613C6.63307 23.1791 6.46637 23.0877 6.29968 22.9918C4.27191 21.8224 2.8173 20.009 2.00665 17.8917C1.77373 17.2842 1.59333 16.6515 1.46774 16.0006C1.32616 15.2697 1.25537 14.516 1.25537 13.7509C1.25537 11.5994 1.82625 9.36342 3.01597 7.29872C6.03479 2.07073 12.0016 -0.249771 16.9112 1.65734C16.9203 1.65962 16.9249 1.6619 16.9318 1.66647C17.1715 1.75783 17.4067 1.86061 17.6419 1.97481C17.6488 1.97938 17.6579 1.98394 17.6671 1.98623C17.8634 2.08215 18.0575 2.18722 18.2471 2.29685C18.5394 2.46586 18.8202 2.64629 19.0874 2.84043C19.4025 3.06883 19.6994 3.31321 19.978 3.57358C20.0739 3.66266 20.1675 3.75173 20.2589 3.84309C23.6887 7.28273 24.3464 13.1137 21.5308 17.9899Z" fill="#7D61BF" stroke="black" stroke-width="0.578893" stroke-linecap="round" stroke-linejoin="round"/>
<path d="M12.1961 5.71271L9.56089 14.6955C9.38049 15.3122 9.75042 15.954 10.3738 16.1047C10.9447 16.2441 11.527 15.9197 11.7097 15.3602L14.6029 6.45728C14.8244 5.77666 14.4339 5.05036 13.7466 4.85622C13.0821 4.66894 12.3902 5.05036 12.1961 5.71271Z" fill="#F4EEFF" stroke="black" stroke-width="0.578893" stroke-linecap="round" stroke-linejoin="round"/>
<path d="M9.65786 19.7937C10.2847 19.7937 10.7928 19.2855 10.7928 18.6586C10.7928 18.0317 10.2847 17.5234 9.65786 17.5234C9.03107 17.5234 8.52295 18.0317 8.52295 18.6586C8.52295 19.2855 9.03107 19.7937 9.65786 19.7937Z" fill="#F4EEFF" stroke="black" stroke-width="0.578893" stroke-linecap="round" stroke-linejoin="round"/>
<path d="M40.0698 64.144C39.8506 64.5231 39.5994 64.8657 39.3208 65.1741C38.074 66.549 36.2951 67.2022 34.6464 66.9144L34.1303 66.7911L32.9018 66.501L31.7829 66.2361L31.9587 65.7222L32.0592 65.423C31.7258 65.0302 31.4678 64.5825 31.2828 64.1006C31.0636 63.5273 30.9471 62.9038 30.9448 62.2643V62.2369C30.9448 61.2685 31.2006 60.2613 31.7372 59.3317C32.5113 57.991 33.7147 57.0774 35.0163 56.696L35.2104 56.125L35.5461 56.2049C35.5461 56.2049 35.5461 56.2049 35.5507 56.2072L36.8637 56.5201L37.9941 56.7919C37.9941 56.7919 37.9986 56.7942 38.0032 56.7942C38.1105 56.8376 38.2156 56.8833 38.3229 56.9358C38.3252 56.9358 38.3297 56.9381 38.3343 56.9404C38.4211 56.9838 38.5101 57.0295 38.5946 57.0797C38.8801 57.2441 39.1404 57.4383 39.3733 57.6553C39.4167 57.6941 39.4601 57.7352 39.4989 57.7763C39.7181 57.9956 39.9099 58.2354 40.0766 58.4935H40.0789C41.0974 60.058 41.1613 62.2597 40.0721 64.144H40.0698Z" fill="#F4EEFF" stroke="black" stroke-width="0.578893" stroke-linecap="round" stroke-linejoin="round"/>
<path d="M38.0151 63.6918C37.6817 64.2697 37.2684 64.7676 36.8025 65.1787C35.6859 66.1654 34.2633 66.645 32.9023 66.5057C32.5232 66.4669 32.1464 66.3778 31.7834 66.2407C31.6509 66.1905 31.5185 66.1311 31.3883 66.0649C31.3107 66.0283 31.2376 65.9872 31.1622 65.9438C30.2488 65.4185 29.5935 64.6009 29.2281 63.6484C29.0066 63.066 28.8901 62.4334 28.8901 61.7847C28.8901 61.57 28.9038 61.3531 28.929 61.1361C29.018 60.3732 29.2646 59.6035 29.6825 58.8795C30.8951 56.7783 33.1649 55.7208 35.2109 56.1296L35.5466 56.2096C35.5466 56.2096 35.5466 56.2096 35.5512 56.2119C35.6813 56.2461 35.8115 56.2895 35.9394 56.3398C35.9417 56.3398 35.9439 56.3421 35.9485 56.3421C36.0558 56.3854 36.1609 56.4311 36.2682 56.4837C36.2705 56.4837 36.2751 56.4859 36.2796 56.4882C36.3664 56.5316 36.4555 56.5773 36.5399 56.6275C36.8254 56.792 37.0857 56.9861 37.3186 57.2031C37.362 57.2419 37.4054 57.283 37.4442 57.3242C37.8575 57.7398 38.1818 58.2309 38.4101 58.7722C39.0358 60.2476 38.9445 62.0862 38.0174 63.6918H38.0151Z" fill="#8C79B5" stroke="black" stroke-width="0.578893" stroke-linecap="round" stroke-linejoin="round"/>
<path d="M20.8296 26.7812L22.4098 31.0066" stroke="#8C79B5" stroke-width="0.578893" stroke-linecap="round" stroke-linejoin="round"/>
<path d="M23.569 27.9219L19.687 29.749" stroke="#8C79B5" stroke-width="0.578893" stroke-linecap="round" stroke-linejoin="round"/>
<path d="M33.1616 31.1211L34.7418 35.3464" stroke="#8C79B5" stroke-width="0.578893" stroke-linecap="round" stroke-linejoin="round"/>
<path d="M35.901 32.2617L32.019 34.0889" stroke="#8C79B5" stroke-width="0.578893" stroke-linecap="round" stroke-linejoin="round"/>
<path d="M32.3037 44.9455C32.08 43.904 30.9108 43.381 29.9837 43.904L29.6275 44.105C28.7186 44.6189 27.57 44.1256 27.3188 43.1115L27.2092 42.6707C26.9717 41.7114 25.919 41.2044 25.0216 41.6178L24.0168 42.0791C23.108 42.4948 22.0461 41.9718 21.8224 40.9988L21.7904 40.8549C21.5643 39.8728 20.4888 39.3498 19.5777 39.7815L18.9862 40.0624C18.0431 40.5101 16.9333 39.9345 16.7575 38.9067C16.5931 37.9497 15.6089 37.3673 14.6909 37.6848" stroke="#8C79B5" stroke-width="0.578893" stroke-linecap="round" stroke-linejoin="round"/>
<path d="M32.8022 59.4258L34.693 63.0139" stroke="#E0D5F2" stroke-width="0.578893" stroke-miterlimit="10" stroke-linecap="round"/>
<path d="M35.4115 59.8594L31.8218 62.4562" stroke="#E0D5F2" stroke-width="0.578893" stroke-miterlimit="10" stroke-linecap="round"/>
<g style="mix-blend-mode:multiply">
<path d="M40.0715 58.4981L38.4114 58.5324C35.4656 62.4197 32.7094 62.8102 30.9397 62.2689C29.686 61.8852 28.9233 61.1566 28.9233 61.1566V61.1361C29.0124 60.3732 29.259 59.6035 29.6769 58.8795C30.8895 56.7783 33.1593 55.7208 35.2053 56.1296L35.541 56.2096C35.541 56.2096 35.541 56.2096 35.5456 56.2119L36.8586 56.5248L37.9889 56.7966C37.9889 56.7966 37.9935 56.7988 37.9981 56.7988C38.1054 56.8422 38.2104 56.8879 38.3178 56.9404C38.32 56.9404 38.3246 56.9427 38.3292 56.945C38.4159 56.9884 38.505 57.0341 38.5895 57.0843C38.8749 57.2488 39.1353 57.4429 39.3682 57.6599C39.4116 57.6987 39.455 57.7398 39.4938 57.7809C39.713 58.0002 39.9048 58.24 40.0715 58.4981Z" fill="#C1BBD2"/>
</g>
<g style="mix-blend-mode:multiply" opacity="0.39">
<path d="M42.0306 47.6523V47.6568C38.208 51.7291 32.5563 54.3077 26.2492 54.3077C24.5137 54.3077 22.8262 54.1113 21.214 53.7436L8.9241 56.7516C8.15227 56.9389 7.52887 56.1166 7.91707 55.4223L10.2463 51.2655C27.9801 33.4871 42.0284 47.6523 42.0284 47.6523H42.0306Z" fill="#C1BBD2"/>
</g>
<g style="mix-blend-mode:overlay" opacity="0.48">
<path d="M19.2313 4.74297C19.2313 11.6177 13.6595 17.1906 6.78607 17.1906C5.73793 17.1906 4.71948 17.0604 3.7467 16.816C2.95431 16.6173 2.19162 16.3432 1.46774 16.0006C1.32616 15.2697 1.25537 14.516 1.25537 13.7509C1.25537 11.5994 1.82625 9.36342 3.01597 7.29872C6.03479 2.07073 12.0016 -0.249771 16.9112 1.65734C16.9203 1.65962 16.9249 1.6619 16.9318 1.66647C17.1715 1.75783 17.4067 1.86061 17.6419 1.97481C17.6488 1.97938 17.6579 1.98394 17.6671 1.98623L19.044 2.58463C19.06 2.66913 19.0737 2.75592 19.0874 2.84043C19.181 3.46167 19.2313 4.09661 19.2313 4.74297Z" fill="white"/>
</g>
<g style="mix-blend-mode:overlay" opacity="0.25">
<path d="M17.8607 34.8905C17.8607 39.8649 13.3279 43.8984 7.72874 43.9121C6.24901 41.2787 5.41553 38.289 5.41553 35.1189C5.41553 31.766 6.34949 28.6118 7.99134 25.8711C13.4695 26.0104 17.8607 29.9936 17.8607 34.8905Z" fill="white"/>
</g>
<g style="mix-blend-mode:multiply">
<path d="M39.3211 65.1773C38.0743 66.5522 36.2955 67.2055 34.6468 66.9177L34.1307 66.7943L32.9022 66.5043C32.5231 66.4655 32.1463 66.3764 31.7832 66.2393C31.6508 66.1891 31.5183 66.1297 31.3882 66.0635C31.58 65.9379 31.7718 65.8237 31.9591 65.7254C34.5257 64.3574 36.8024 65.1773 36.8024 65.1773H39.3234H39.3211Z" fill="#C1BBD2"/>
</g>
<path d="M21.2163 53.7422L24.8699 54.8842" stroke="black" stroke-width="0.578893" stroke-linecap="round" stroke-linejoin="round"/>
<g style="mix-blend-mode:multiply">
<path d="M20.8305 19.0829C20.8305 19.0829 23.7009 17.306 23.2921 19.8755C22.8834 22.4449 14.7243 27.9287 8.98584 24.046C8.98584 24.046 16.7201 25.0829 20.8305 19.0829Z" fill="#C1BBD2"/>
</g>
</svg>
