<svg width="10" height="10" viewBox="0 0 10 10" fill="none" xmlns="http://www.w3.org/2000/svg">
<path d="M4.3125 5.43746H0.5625C0.403125 5.43746 0.269531 5.38354 0.161719 5.27569C0.0539063 5.16783 0 5.03418 0 4.87474C0 4.71529 0.0539063 4.58172 0.161719 4.47403C0.269531 4.36634 0.403125 4.3125 0.5625 4.3125H4.3125V0.5625C4.3125 0.403125 4.36642 0.269531 4.47427 0.161719C4.58214 0.0539063 4.71579 0 4.87523 0C5.03468 0 5.16824 0.0539063 5.27593 0.161719C5.38362 0.269531 5.43746 0.403125 5.43746 0.5625V4.3125H9.18746C9.34684 4.3125 9.48043 4.36643 9.58824 4.47428C9.69606 4.58214 9.74996 4.71579 9.74996 4.87523C9.74996 5.03468 9.69606 5.16824 9.58824 5.27593C9.48043 5.38362 9.34684 5.43746 9.18746 5.43746H5.43746V9.18746C5.43746 9.34684 5.38354 9.48043 5.27569 9.58824C5.16782 9.69606 5.03418 9.74996 4.87474 9.74996C4.71529 9.74996 4.58172 9.69606 4.47403 9.58824C4.36634 9.48043 4.3125 9.34684 4.3125 9.18746V5.43746Z" fill="#1C1B1F"/>
</svg>
