<svg width="22" height="22" viewBox="0 0 22 22" fill="none" xmlns="http://www.w3.org/2000/svg">
<g id="Group">
<path id="Vector" fill-rule="evenodd" clip-rule="evenodd" d="M10.9962 0.324219C5.11266 0.324219 0.322266 5.11461 0.322266 10.9982C0.322266 16.8817 5.11266 21.6669 10.9962 21.6669C16.8798 21.6669 21.665 16.8817 21.665 10.9982C21.665 5.11461 16.8798 0.324219 10.9962 0.324219ZM10.9962 2.10292C15.9185 2.10292 19.8863 6.0759 19.8863 10.9982C19.8863 15.9205 15.9185 19.8882 10.9962 19.8882C6.07394 19.8882 2.10097 15.9205 2.10097 10.9982C2.10097 6.0759 6.07394 2.10292 10.9962 2.10292ZM15.4221 6.71122C15.3048 6.71977 15.1904 6.7515 15.0855 6.80457C14.9805 6.85764 14.8871 6.931 14.8107 7.02041L9.59098 13.0791L7.14352 10.5518C7.06168 10.4679 6.96406 10.401 6.85628 10.355C6.74851 10.3089 6.63269 10.2847 6.5155 10.2835C6.39831 10.2824 6.28206 10.3045 6.17342 10.3484C6.06477 10.3924 5.96589 10.4574 5.88245 10.5397C5.71492 10.7045 5.61944 10.9289 5.61685 11.1639C5.61427 11.3989 5.70481 11.6253 5.86867 11.7938L8.98835 15.0159C9.07432 15.1048 9.17785 15.1747 9.29235 15.2213C9.40686 15.2679 9.52981 15.2901 9.65337 15.2865C9.77693 15.2829 9.89839 15.2536 10.01 15.2004C10.1216 15.1472 10.2209 15.0714 10.3015 14.9777L16.157 8.17558C16.3111 7.99705 16.3879 7.76464 16.3707 7.52946C16.3534 7.29427 16.2434 7.07558 16.065 6.92145C15.8867 6.76951 15.6557 6.69393 15.4221 6.71122Z" fill="#156D39"/>
</g>
</svg>
