<svg width="24" height="24" viewBox="0 0 24 24" fill="none" xmlns="http://www.w3.org/2000/svg">
<path d="M17.79 9.27C17.79 10.41 17.56 11.51 17.15 12.51H9.59C8.61 12.51 7.81 13.31 7.81 14.29V17.67C3.8 16.98 0.75 13.48 0.75 9.27C0.75 4.56 4.56 0.75 9.27 0.75C13.98 0.75 17.79 4.56 17.79 9.27Z" stroke="#1E2528" stroke-width="1.1" stroke-linecap="round" stroke-linejoin="round"/>
<path d="M9.26906 2.72021V9.27022L4.78906 7.60021" stroke="#1E2528" stroke-width="1.1" stroke-linecap="round" stroke-linejoin="round"/>
<path d="M22.5605 14.2898V20.7798C22.5605 21.7598 21.7705 22.5598 20.7805 22.5598H9.59055C8.61055 22.5598 7.81055 21.7598 7.81055 20.7798V14.2898C7.81055 13.3098 8.61055 12.5098 9.59055 12.5098H20.7805C21.7705 12.5098 22.5605 13.3098 22.5605 14.2898Z" stroke="#1E2528" stroke-width="1.1" stroke-linecap="round" stroke-linejoin="round"/>
<path d="M22.3205 17.54H7.81055V20.05H22.3205V17.54Z" stroke="#1E2528" stroke-width="1.1" stroke-linecap="round" stroke-linejoin="round"/>
<path d="M9.66016 14.8999H12.6902" stroke="#1E2528" stroke-width="1.1" stroke-linecap="round" stroke-linejoin="round"/>
</svg>
