<svg width="18" height="18" viewBox="0 0 18 18" fill="none" xmlns="http://www.w3.org/2000/svg">
<g clip-path="url(#clip0_6258_26725)">
<path d="M9 0C7.21997 0 5.47991 0.527841 3.99987 1.51677C2.51983 2.50571 1.36628 3.91131 0.685088 5.55585C0.00389957 7.20038 -0.17433 9.00998 0.172937 10.7558C0.520204 12.5016 1.37737 14.1053 2.63604 15.364C3.89472 16.6226 5.49836 17.4798 7.24419 17.8271C8.99002 18.1743 10.7996 17.9961 12.4442 17.3149C14.0887 16.6337 15.4943 15.4802 16.4832 14.0001C17.4722 12.5201 18 10.78 18 9C17.9974 6.61384 17.0484 4.32616 15.3611 2.63889C13.6738 0.951621 11.3862 0.00258081 9 0ZM9 16.5C7.51664 16.5 6.0666 16.0601 4.83323 15.236C3.59986 14.4119 2.63856 13.2406 2.07091 11.8701C1.50325 10.4997 1.35473 8.99168 1.64411 7.53682C1.9335 6.08197 2.64781 4.74559 3.6967 3.6967C4.7456 2.64781 6.08197 1.9335 7.53683 1.64411C8.99168 1.35472 10.4997 1.50325 11.8701 2.0709C13.2406 2.63856 14.4119 3.59985 15.236 4.83322C16.0601 6.06659 16.5 7.51664 16.5 9C16.4978 10.9885 15.7069 12.8948 14.3009 14.3009C12.8948 15.7069 10.9885 16.4978 9 16.5Z" fill="#1E2528"/>
<path d="M8.99886 4.5C8.79995 4.5 8.60918 4.57902 8.46853 4.71967C8.32788 4.86032 8.24886 5.05109 8.24886 5.25L8.24886 8.49375L5.72061 10.0778C5.55154 10.1834 5.43134 10.3518 5.38648 10.5461C5.34161 10.7403 5.37574 10.9444 5.48136 11.1135C5.58698 11.2826 5.75545 11.4028 5.94969 11.4476C6.14393 11.4925 6.34804 11.4584 6.51711 11.3527L9.39711 9.55275C9.50593 9.48457 9.59541 9.3896 9.657 9.27693C9.71859 9.16425 9.75022 9.03765 9.74886 8.90925L9.74886 5.25C9.74886 5.05109 9.66984 4.86032 9.52919 4.71967C9.38854 4.57902 9.19777 4.5 8.99886 4.5Z" fill="#1E2528"/>
</g>
<defs>
<clipPath id="clip0_6258_26725">
<rect width="18" height="18" fill="white"/>
</clipPath>
</defs>
</svg>
