<svg width="18" height="18" viewBox="0 0 18 18" fill="#d2d3d4"  xmlns="http://www.w3.org/2000/svg">
<path d="M13.5 1H3.5C2.83696 1 2.20107 1.2634 1.73223 1.73224C1.26339 2.20109 1 2.83698 1 3.50004L1 11.0001C1 11.6632 1.26339 12.2991 1.73223 12.7679C2.20107 13.2368 2.83696 13.5002 3.5 13.5002H5.3125L8.09437 15.8521C8.20723 15.9476 8.35028 16 8.49813 16C8.64597 16 8.78902 15.9476 8.90187 15.8521L11.6875 13.5002H13.5C14.163 13.5002 14.7989 13.2368 15.2678 12.7679C15.7366 12.2991 16 11.6632 16 11.0001V3.50004C16 2.83698 15.7366 2.20109 15.2678 1.73224C14.7989 1.2634 14.163 1 13.5 1ZM14.75 11.0001C14.75 11.3317 14.6183 11.6496 14.3839 11.884C14.1495 12.1185 13.8315 12.2502 13.5 12.2502H11.6875C11.3921 12.2502 11.1062 12.355 10.8806 12.5458L8.5 14.5564L6.12063 12.5458C5.89473 12.3547 5.60837 12.25 5.3125 12.2502H3.5C3.16848 12.2502 2.85054 12.1185 2.61612 11.884C2.3817 11.6496 2.25 11.3317 2.25 11.0001V3.50004C2.25 3.16851 2.3817 2.85056 2.61612 2.61614C2.85054 2.38172 3.16848 2.25002 3.5 2.25002H13.5C13.8315 2.25002 14.1495 2.38172 14.3839 2.61614C14.6183 2.85056 14.75 3.16851 14.75 3.50004V11.0001Z" fill="#d2d3d4"/>
<path d="M5.375 5.37502H8.5C8.66576 5.37502 8.82473 5.30917 8.94194 5.19196C9.05915 5.07474 9.125 4.91577 9.125 4.75001C9.125 4.58425 9.05915 4.42527 8.94194 4.30806C8.82473 4.19085 8.66576 4.125 8.5 4.125H5.375C5.20924 4.125 5.05027 4.19085 4.93306 4.30806C4.81585 4.42527 4.75 4.58425 4.75 4.75001C4.75 4.91577 4.81585 5.07474 4.93306 5.19196C5.05027 5.30917 5.20924 5.37502 5.375 5.37502Z" fill="#d2d3d4"/>
<path d="M11.625 6.625H5.375C5.20924 6.625 5.05027 6.69085 4.93306 6.80806C4.81585 6.92527 4.75 7.08425 4.75 7.25001C4.75 7.41577 4.81585 7.57474 4.93306 7.69196C5.05027 7.80917 5.20924 7.87502 5.375 7.87502H11.625C11.7908 7.87502 11.9497 7.80917 12.0669 7.69196C12.1842 7.57474 12.25 7.41577 12.25 7.25001C12.25 7.08425 12.1842 6.92527 12.0669 6.80806C11.9497 6.69085 11.7908 6.625 11.625 6.625Z" fill="#d2d3d4"/>
<path d="M11.625 9.125H5.375C5.20924 9.125 5.05027 9.19085 4.93306 9.30806C4.81585 9.42527 4.75 9.58425 4.75 9.75001C4.75 9.91577 4.81585 10.0747 4.93306 10.192C5.05027 10.3092 5.20924 10.375 5.375 10.375H11.625C11.7908 10.375 11.9497 10.3092 12.0669 10.192C12.1842 10.0747 12.25 9.91577 12.25 9.75001C12.25 9.58425 12.1842 9.42527 12.0669 9.30806C11.9497 9.19085 11.7908 9.125 11.625 9.125Z" fill="#d2d3d4"/>
</svg>
