<svg width="18" height="18" viewBox="0 0 18 18" fill="none" xmlns="http://www.w3.org/2000/svg">
<path d="M16.32 0H6.264C5.81844 0 5.39112 0.177 5.07606 0.492061C4.761 0.807122 4.584 1.23444 4.584 1.68V11.736C4.584 11.9566 4.62745 12.1751 4.71188 12.3789C4.79631 12.5827 4.92006 12.7679 5.07606 12.9239C5.23206 13.0799 5.41726 13.2037 5.62109 13.2881C5.82492 13.3725 6.04338 13.416 6.264 13.416H16.32C16.7656 13.416 17.1929 13.239 17.5079 12.9239C17.823 12.6089 18 12.1816 18 11.736V1.68C18 1.23444 17.823 0.807122 17.5079 0.492061C17.1929 0.177 16.7656 0 16.32 0ZM16.56 11.736C16.56 11.7997 16.5347 11.8607 16.4897 11.9057C16.4447 11.9507 16.3837 11.976 16.32 11.976H6.264C6.20035 11.976 6.1393 11.9507 6.09429 11.9057C6.04929 11.8607 6.024 11.7997 6.024 11.736V1.68C6.024 1.61635 6.04929 1.5553 6.09429 1.51029C6.1393 1.46529 6.20035 1.44 6.264 1.44H16.32C16.3837 1.44 16.4447 1.46529 16.4897 1.51029C16.5347 1.5553 16.56 1.61635 16.56 1.68V11.736Z" fill="#935ED6"/>
<path d="M1.68 6.02437H2.928C3.11896 6.02437 3.30209 5.94852 3.43712 5.81349C3.57214 5.67847 3.648 5.49533 3.648 5.30437C3.648 5.11342 3.57214 4.93028 3.43712 4.79526C3.30209 4.66023 3.11896 4.58438 2.928 4.58438H1.68C1.23444 4.58438 0.807122 4.76137 0.492061 5.07644C0.177 5.3915 0 5.81881 0 6.26437V16.3204C0 16.7659 0.177 17.1933 0.492061 17.5083C0.807122 17.8234 1.23444 18.0004 1.68 18.0004H11.736C11.9566 18.0004 12.1751 17.9569 12.3789 17.8725C12.5827 17.7881 12.7679 17.6643 12.9239 17.5083C13.0799 17.3523 13.2037 17.1671 13.2881 16.9633C13.3725 16.7595 13.416 16.541 13.416 16.3204V15.1204C13.416 14.9294 13.3401 14.7463 13.2051 14.6113C13.0701 14.4762 12.887 14.4004 12.696 14.4004C12.505 14.4004 12.3219 14.4762 12.1869 14.6113C12.0519 14.7463 11.976 14.9294 11.976 15.1204V16.3204C11.976 16.384 11.9507 16.4451 11.9057 16.4901C11.8607 16.5351 11.7997 16.5604 11.736 16.5604H1.68C1.61635 16.5604 1.5553 16.5351 1.51029 16.4901C1.46529 16.4451 1.44 16.384 1.44 16.3204V6.26437C1.44 6.20072 1.46529 6.13968 1.51029 6.09467C1.5553 6.04966 1.61635 6.02437 1.68 6.02437Z" fill="#935ED6"/>
</svg>
