<svg width="15" height="17" viewBox="0 0 15 17" fill="none" xmlns="http://www.w3.org/2000/svg">
<path d="M13.4002 3.14154H11.3163C11.1602 2.40395 10.7474 1.74121 10.1474 1.26502C9.54743 0.788822 8.79691 0.528294 8.02237 0.527344H6.67793C5.90339 0.528294 5.15287 0.788822 4.55287 1.26502C3.95286 1.74121 3.54006 2.40395 3.38404 3.14154H1.30015C1.12187 3.14154 0.950885 3.2104 0.824819 3.33296C0.698753 3.45553 0.62793 3.62176 0.62793 3.79509C0.62793 3.96842 0.698753 4.13466 0.824819 4.25722C0.950885 4.37978 1.12187 4.44864 1.30015 4.44864H1.97237V12.9448C1.97344 13.8111 2.3279 14.6417 2.958 15.2543C3.5881 15.8669 4.44239 16.2115 5.33349 16.2125H9.36682C10.2579 16.2115 11.1122 15.8669 11.7423 15.2543C12.3724 14.6417 12.7269 13.8111 12.7279 12.9448V4.44864H13.4002C13.5784 4.44864 13.7494 4.37978 13.8755 4.25722C14.0016 4.13466 14.0724 3.96842 14.0724 3.79509C14.0724 3.62176 14.0016 3.45553 13.8755 3.33296C13.7494 3.2104 13.5784 3.14154 13.4002 3.14154ZM6.67793 1.83444H8.02237C8.43934 1.83494 8.84593 1.96082 9.1864 2.19484C9.52687 2.42885 9.78455 2.75954 9.92409 3.14154H4.77621C4.91575 2.75954 5.17343 2.42885 5.5139 2.19484C5.85437 1.96082 6.26097 1.83494 6.67793 1.83444ZM11.3835 12.9448C11.3835 13.4648 11.171 13.9635 10.7928 14.3312C10.4146 14.6989 9.90167 14.9054 9.36682 14.9054H5.33349C4.79863 14.9054 4.28569 14.6989 3.90749 14.3312C3.52929 13.9635 3.31682 13.4648 3.31682 12.9448V4.44864H11.3835V12.9448Z" fill="#BF3939"/>
<path d="M6.00571 12.2912C6.18399 12.2912 6.35497 12.2224 6.48104 12.0998C6.60711 11.9772 6.67793 11.811 6.67793 11.6377V7.71639C6.67793 7.54306 6.60711 7.37682 6.48104 7.25426C6.35497 7.13169 6.18399 7.06284 6.00571 7.06284C5.82742 7.06284 5.65644 7.13169 5.53038 7.25426C5.40431 7.37682 5.33349 7.54306 5.33349 7.71639V11.6377C5.33349 11.811 5.40431 11.9772 5.53038 12.0998C5.65644 12.2224 5.82742 12.2912 6.00571 12.2912Z" fill="#BF3939"/>
<path d="M8.6946 12.2912C8.87288 12.2912 9.04386 12.2224 9.16993 12.0998C9.296 11.9772 9.36682 11.811 9.36682 11.6377V7.71639C9.36682 7.54306 9.296 7.37682 9.16993 7.25426C9.04386 7.13169 8.87288 7.06284 8.6946 7.06284C8.51631 7.06284 8.34533 7.13169 8.21926 7.25426C8.0932 7.37682 8.02237 7.54306 8.02237 7.71639V11.6377C8.02237 11.811 8.0932 11.9772 8.21926 12.0998C8.34533 12.2224 8.51631 12.2912 8.6946 12.2912Z" fill="#BF3939"/>
</svg>
