<svg width="17" height="17" viewBox="0 0 17 17" fill="none" xmlns="http://www.w3.org/2000/svg">
<path id="Vector" d="M16.3124 15.3124H9.74807C9.9081 15.1685 10.0567 15.0124 10.1924 14.8455L15.8624 7.81423C16.1942 7.39568 16.3499 6.86432 16.2963 6.33291C16.2427 5.80151 15.9842 5.31189 15.5756 4.96798L10.4006 0.57485C10.2079 0.411714 9.98474 0.288354 9.74411 0.211886C9.50347 0.135418 9.25008 0.107356 8.99854 0.12932C8.74701 0.151284 8.50231 0.222838 8.27857 0.339854C8.05483 0.45687 7.85647 0.617033 7.69495 0.8111L1.3612 8.3036C0.7866 8.99549 0.50001 9.88181 0.560738 10.7791C0.621467 11.6764 1.02487 12.5161 1.68745 13.1242L4.0387 15.3124C4.81461 16.0317 5.8325 16.4332 6.89057 16.4373H16.3124C16.4616 16.4373 16.6047 16.3781 16.7102 16.2726C16.8157 16.1671 16.8749 16.024 16.8749 15.8749C16.8749 15.7257 16.8157 15.5826 16.7102 15.4771C16.6047 15.3716 16.4616 15.3124 16.3124 15.3124ZM8.55557 1.53673C8.62498 1.45372 8.71075 1.3859 8.80753 1.33751C8.90431 1.28912 9.01002 1.2612 9.11807 1.25548H9.18557C9.37099 1.25536 9.55042 1.32115 9.69182 1.4411L14.8612 5.81735C15.0471 5.97211 15.1653 6.19337 15.1905 6.43397C15.2157 6.67458 15.146 6.91552 14.9962 7.10547L10.7493 12.3705L4.1287 6.7736L8.55557 1.53673ZM2.43557 12.2973C1.98824 11.8836 1.71671 11.314 1.67694 10.7059C1.63717 10.0979 1.8322 9.49773 2.22182 9.02923L3.37495 7.63423L10.0012 13.2592L9.28682 14.148C9.02408 14.4805 8.69547 14.7551 8.32161 14.9547C7.94775 15.1543 7.53669 15.2745 7.1142 15.3078C6.69171 15.341 6.26691 15.2867 5.86641 15.1481C5.46592 15.0095 5.09838 14.7896 4.78682 14.5023L2.43557 12.2973Z" fill="#935ED6"/>
</svg>
