<svg width="18" height="18" viewBox="0 0 18 18" fill="none" xmlns="http://www.w3.org/2000/svg">
<g id="Icons - 18px">
<path id="Vector" d="M10.2738 17C10.1361 17 10.0021 16.9532 9.89187 16.8667L7.3456 14.8667C7.26654 14.8046 7.20237 14.724 7.15818 14.6315C7.11398 14.5389 7.09097 14.4368 7.09097 14.3333V10.5867L2.62482 5.32467C2.30763 4.94992 2.10053 4.48721 2.0284 3.99216C1.95628 3.4971 2.02221 2.99077 2.21825 2.53401C2.4143 2.07725 2.73214 1.68951 3.13355 1.41738C3.53496 1.14525 4.00287 1.00032 4.48105 1H13.5203C13.9984 1.00059 14.4662 1.14576 14.8675 1.41807C15.2687 1.69038 15.5864 2.07825 15.7822 2.53506C15.978 2.99187 16.0438 3.49818 15.9715 3.99316C15.8991 4.48815 15.6919 4.95073 15.3746 5.32533L10.9104 10.5867V16.3333C10.9104 16.5101 10.8433 16.6797 10.7239 16.8047C10.6045 16.9298 10.4426 17 10.2738 17ZM8.36411 14L9.63724 15V10.3333C9.63737 10.1701 9.69467 10.0126 9.79829 9.89067L14.4249 4.43933C14.5791 4.25672 14.6798 4.03136 14.7148 3.7903C14.7498 3.54924 14.7176 3.30274 14.6221 3.08037C14.5265 2.85801 14.3718 2.66924 14.1763 2.53673C13.9809 2.40421 13.7531 2.33359 13.5203 2.33333H4.48105C4.24835 2.3337 4.02069 2.40436 3.82538 2.53684C3.63007 2.66932 3.4754 2.858 3.37992 3.08023C3.28443 3.30247 3.25219 3.54884 3.28705 3.78979C3.32192 4.03074 3.42241 4.25604 3.57648 4.43867L8.20369 9.89067C8.30708 10.0127 8.36415 10.1702 8.36411 10.3333V14Z" fill="#1E2528"/>
</g>
</svg>
