<svg width="14" height="14" viewBox="0 0 14 14" fill="none" xmlns="http://www.w3.org/2000/svg">
<path d="M6.9375 10.6483C7.20481 10.6483 7.42151 10.4316 7.42151 10.1642V6.29215C7.42151 6.02484 7.20481 5.80814 6.9375 5.80814C6.67019 5.80814 6.45349 6.02484 6.45349 6.29215V10.1642C6.45349 10.4316 6.67019 10.6483 6.9375 10.6483Z" fill="#8248CB"/>
<path d="M6.9375 3.71076C7.29392 3.71076 7.58285 3.99969 7.58285 4.3561C7.58285 4.71252 7.29392 5.00145 6.9375 5.00145C6.58108 5.00145 6.29215 4.71252 6.29215 4.3561C6.29215 3.99969 6.58108 3.71076 6.9375 3.71076Z" fill="#8248CB"/>
<path fill-rule="evenodd" clip-rule="evenodd" d="M0 6.9375C0 3.10602 3.10602 0 6.9375 0C10.769 0 13.875 3.10602 13.875 6.9375C13.875 10.769 10.769 13.875 6.9375 13.875C3.10602 13.875 0 10.769 0 6.9375ZM6.9375 0.968023C3.64065 0.968023 0.968023 3.64065 0.968023 6.9375C0.968023 10.2344 3.64065 12.907 6.9375 12.907C10.2344 12.907 12.907 10.2344 12.907 6.9375C12.907 3.64065 10.2344 0.968023 6.9375 0.968023Z" fill="#8248CB"/>
</svg>
