<svg width="28" height="29" viewBox="0 0 28 29" fill="none" xmlns="http://www.w3.org/2000/svg">
<path fill-rule="evenodd" clip-rule="evenodd" d="M11.6667 4.99422C11.3572 4.99422 11.0605 5.11714 10.8417 5.33593C10.6229 5.55472 10.5 5.85147 10.5 6.16089C10.5 6.47031 10.6229 6.76705 10.8417 6.98585C11.0605 7.20464 11.3572 7.32755 11.6667 7.32756H14C14.3094 7.32755 14.6062 7.20464 14.825 6.98585C15.0437 6.76705 15.1667 6.47031 15.1667 6.16089C15.1667 5.85147 15.0437 5.55472 14.825 5.33593C14.6062 5.11714 14.3094 4.99422 14 4.99422H11.6667ZM9.19179 3.68601C9.84817 3.02964 10.7384 2.66089 11.6667 2.66089H14C14.9283 2.66089 15.8185 3.02964 16.4749 3.68601C16.8475 4.05865 17.1274 4.50667 17.2998 4.99422H18.6667C19.5949 4.99422 20.4852 5.36297 21.1415 6.01935C21.7979 6.67572 22.1667 7.56596 22.1667 8.49422V13.1609C22.1667 13.8052 21.6443 14.3276 21 14.3276C20.3557 14.3276 19.8333 13.8052 19.8333 13.1609V8.49422C19.8333 8.1848 19.7104 7.88806 19.4916 7.66926C19.2728 7.45047 18.9761 7.32755 18.6667 7.32755H17.2998C17.1274 7.81511 16.8475 8.26312 16.4749 8.63576C15.8185 9.29214 14.9283 9.66089 14 9.66089H11.6667C10.7384 9.66089 9.84817 9.29214 9.19179 8.63576C8.81915 8.26312 8.53922 7.81511 8.36683 7.32755H7C6.69058 7.32755 6.39383 7.45047 6.17504 7.66926C5.95625 7.88806 5.83333 8.1848 5.83333 8.49422V22.4942C5.83333 22.8036 5.95625 23.1004 6.17504 23.3192C6.39384 23.538 6.69058 23.6609 7 23.6609H13.6465C14.2908 23.6609 14.8132 24.1832 14.8132 24.8276C14.8132 25.4719 14.2908 25.9942 13.6465 25.9942H7C6.07174 25.9942 5.1815 25.6255 4.52513 24.9691C3.86875 24.3127 3.5 23.4225 3.5 22.4942V8.49422C3.5 7.56596 3.86875 6.67572 4.52513 6.01935C5.1815 5.36297 6.07174 4.99422 7 4.99422H8.36683C8.53922 4.50667 8.81915 4.05865 9.19179 3.68601ZM8.16667 13.1609C8.16667 12.5166 8.689 11.9942 9.33333 11.9942H14C14.6443 11.9942 15.1667 12.5166 15.1667 13.1609C15.1667 13.8052 14.6443 14.3276 14 14.3276H9.33333C8.689 14.3276 8.16667 13.8052 8.16667 13.1609ZM16.8752 17.2028C17.9692 16.1088 19.4529 15.4942 21 15.4942C22.5471 15.4942 24.0308 16.1088 25.1248 17.2028C26.2187 18.2967 26.8333 19.7805 26.8333 21.3276C26.8333 22.8747 26.2187 24.3584 25.1248 25.4523C24.0308 26.5463 22.5471 27.1609 21 27.1609C19.4529 27.1609 17.9692 26.5463 16.8752 25.4523C15.7812 24.3584 15.1667 22.8747 15.1667 21.3276C15.1667 19.7805 15.7812 18.2967 16.8752 17.2028ZM19.8333 18.0277C19.3458 18.2001 18.8978 18.48 18.5251 18.8527C17.8687 19.5091 17.5 20.3993 17.5 21.3276C17.5 22.2558 17.8687 23.146 18.5251 23.8024C19.1815 24.4588 20.0717 24.8276 21 24.8276C21.9283 24.8276 22.8185 24.4588 23.4749 23.8024C23.8475 23.4298 24.1274 22.9818 24.2998 22.4942H21C20.3557 22.4942 19.8333 21.9719 19.8333 21.3276V18.0277ZM22.1667 18.0277V20.1609H24.2998C24.1274 19.6733 23.8475 19.2253 23.4749 18.8527C23.1022 18.48 22.6542 18.2001 22.1667 18.0277ZM8.16667 17.8276C8.16667 17.1832 8.689 16.6609 9.33333 16.6609H12.8333C13.4777 16.6609 14 17.1832 14 17.8276C14 18.4719 13.4777 18.9942 12.8333 18.9942H9.33333C8.689 18.9942 8.16667 18.4719 8.16667 17.8276Z" fill="#979797"/>
</svg>
