<svg width="65" height="65" viewBox="0 0 65 65" fill="none" xmlns="http://www.w3.org/2000/svg">
<path d="M2.4014 32.0187C1.07514 32.0187 -0.00937181 33.0954 0.089996 34.4179C0.502312 39.9056 2.32373 45.2092 5.39612 49.8073C8.91438 55.0728 13.915 59.1767 19.7657 61.6001C25.6163 64.0235 32.0542 64.6576 38.2652 63.4222C44.4762 62.1867 50.1814 59.1372 54.6593 54.6593C59.1372 50.1814 62.1867 44.4762 63.4222 38.2652C64.6576 32.0542 64.0235 25.6163 61.6001 19.7657C59.1767 13.915 55.0728 8.91438 49.8073 5.39612C45.2092 2.32374 39.9056 0.502313 34.4179 0.0899963C33.0954 -0.00937166 32.0187 1.07514 32.0187 2.4014C32.0187 3.72766 33.096 4.7918 34.4171 4.90867C38.9537 5.30999 43.331 6.84504 47.139 9.38951C51.6147 12.38 55.103 16.6306 57.1629 21.6036C59.2228 26.5767 59.7618 32.0489 58.7116 37.3283C57.6615 42.6076 55.0694 47.457 51.2632 51.2632C47.457 55.0694 42.6076 57.6615 37.3282 58.7116C32.0489 59.7618 26.5767 59.2228 21.6036 57.1629C16.6306 55.103 12.38 51.6147 9.38951 47.139C6.84504 43.331 5.30999 38.9537 4.90867 34.4171C4.7918 33.096 3.72766 32.0187 2.4014 32.0187Z" fill="url(#paint0_angular_1158_51967)"/>
<defs>
<radialGradient id="paint0_angular_1158_51967" cx="0" cy="0" r="1" gradientUnits="userSpaceOnUse" gradientTransform="translate(32.0187 32.0187) rotate(164.055) scale(29.1374 27.2362)">
<stop stop-color="#5516A4" stop-opacity="0.13"/>
<stop offset="0.302083" stop-color="#421F70"/>
</radialGradient>
</defs>
</svg>
