<svg width="239" height="213" viewBox="0 0 239 213" fill="none" xmlns="http://www.w3.org/2000/svg">
<path d="M104.094 58.1012L103.569 116.73C103.569 116.73 77.0385 130.163 76.3599 130.477L41.7812 50.0951L69.0757 36.2693H69.079C69.5281 35.9256 70.2526 35.8699 71.436 36.3445C71.4983 36.3675 71.5606 36.3936 71.6229 36.4231C71.9343 36.554 72.2785 36.7242 72.6522 36.9337L99.2157 50.3995C102.196 51.8102 104.094 54.8117 104.094 58.1012Z" fill="#E8E9E9" stroke="#494C51" stroke-width="2" stroke-miterlimit="10"/>
<path d="M76.8867 71.849L76.3622 130.478L41 113.732L41.1737 53.3753C41.1737 53.2706 41.1737 53.1659 41.1737 53.0644C41.1606 52.0203 41.1311 50.711 41.7835 50.0956C42.2195 49.6832 42.9637 49.585 44.229 50.0924C44.2913 50.1185 44.3536 50.1415 44.4159 50.1709C44.7273 50.3051 45.0683 50.472 45.442 50.6815L72.0087 64.1506C74.9886 65.5613 76.8867 68.5595 76.8867 71.8523V71.849Z" fill="#D2D3D4" stroke="#494C51" stroke-width="2" stroke-linecap="round" stroke-linejoin="round"/>
<path d="M76.0547 67.9738L102.936 54.2266" stroke="#494C51" stroke-width="2" stroke-linecap="round" stroke-linejoin="round"/>
<path d="M150.643 86.9049L150.119 138.987C150.119 138.987 123.588 152.42 122.91 152.735L87.5508 135.986L87.7245 82.1785C87.7245 82.0737 87.7213 81.969 87.7213 81.8675C87.7114 80.8234 87.6786 79.5141 88.331 78.8988L88.944 78.5878L115.625 65.073H115.629C116.078 64.7293 116.802 64.6736 117.986 65.1483C118.048 65.1712 118.11 65.1974 118.173 65.2268C118.484 65.3577 118.828 65.5279 119.202 65.7374L145.765 79.2032C148.745 80.6139 150.643 83.6154 150.643 86.9049Z" fill="white" stroke="#6B6B6B" stroke-width="2" stroke-linecap="round" stroke-linejoin="round" stroke-dasharray="8 8"/>
<path d="M88.9451 78.5879L88.332 78.8988C88.4927 78.7483 88.6926 78.6403 88.9451 78.5879Z" fill="white" stroke="#6B6B6B" stroke-width="2" stroke-linecap="round" stroke-linejoin="round" stroke-dasharray="8 8"/>
<path d="M148.504 83.029L123.445 95.8434C122.297 96.4293 120.94 96.4359 119.79 95.8598L88.6367 80.2861" fill="white"/>
<path d="M148.504 83.029L123.445 95.8434C122.297 96.4293 120.94 96.4359 119.79 95.8598L88.6367 80.2861" stroke="#6B6B6B" stroke-width="2" stroke-linecap="round" stroke-linejoin="round" stroke-dasharray="8 8"/>
<path d="M122.441 151.111V96.2891" stroke="#6B6B6B" stroke-width="2" stroke-linecap="round" stroke-linejoin="round" stroke-dasharray="8 8"/>
<path d="M198.506 117.018L197.981 162.554C197.981 162.554 171.451 175.987 170.772 176.302L136.193 109.012L163.488 95.1863H163.491C163.94 94.8426 164.665 94.7869 165.848 95.2615C165.91 95.2844 165.973 95.3106 166.035 95.3401C166.346 95.471 166.691 95.6412 167.064 95.8507L193.628 109.316C196.608 110.727 198.506 113.729 198.506 117.018Z" fill="#D2D3D4" stroke="#494C51" stroke-width="2" stroke-linejoin="round"/>
<path d="M171.299 130.765L170.774 176.301L135.393 159.294L135.589 112.291C135.589 112.187 135.589 112.082 135.589 111.98C135.576 110.936 135.547 109.627 136.199 109.012C136.635 108.599 137.379 108.501 138.645 109.008C138.707 109.035 138.769 109.057 138.831 109.087C139.143 109.221 139.484 109.388 139.858 109.598L166.424 123.067C169.404 124.477 171.302 127.476 171.302 130.768L171.299 130.765Z" fill="#E8E9E9" stroke="#494C51" stroke-width="2" stroke-linecap="round" stroke-linejoin="round"/>
<path d="M170.467 126.89L197.348 113.143" stroke="#494C51" stroke-width="2" stroke-linecap="round" stroke-linejoin="round"/>
<path d="M56.7133 68.3005V84.0117L46.5508 78.7746V63.0635L50.4846 65.0896L56.7133 68.3005Z" fill="#D2D3D4" stroke="#494C51" stroke-width="2" stroke-linecap="round" stroke-linejoin="round"/>
<path d="M56.713 68.3008V79.4655L50.4844 76.4968V65.0898L56.713 68.3008Z" fill="#9D9D9E" stroke="#494C51" stroke-width="2" stroke-linecap="round" stroke-linejoin="round"/>
<path d="M152.108 132.127V147.838L141.945 142.601V126.89L145.879 128.916L152.108 132.127Z" fill="#D2D3D4" stroke="#494C51" stroke-width="2" stroke-linecap="round" stroke-linejoin="round"/>
<path d="M152.109 132.127V143.292L145.881 140.323V128.916L152.109 132.127Z" fill="#9D9D9E" stroke="#494C51" stroke-width="2" stroke-linecap="round" stroke-linejoin="round"/>
<path d="M56.7133 94.4851V110.196L46.5508 104.959V89.248L50.4846 91.2741L56.7133 94.4851Z" fill="#D2D3D4" stroke="#494C51" stroke-width="2" stroke-linecap="round" stroke-linejoin="round"/>
<path d="M56.713 94.4854V105.65L50.4844 102.681V91.2744L56.713 94.4854Z" fill="#9D9D9E" stroke="#494C51" stroke-width="2" stroke-linecap="round" stroke-linejoin="round"/>
<path d="M109.777 108.622L111.253 112.615" stroke="#6B6B6B" stroke-width="2" stroke-linecap="round" stroke-linejoin="round"/>
<path d="M108.98 111.427L112.049 109.843" stroke="#6B6B6B" stroke-width="2" stroke-linecap="round" stroke-linejoin="round"/>
<path d="M96.6641 102.73L98.1393 106.724" stroke="#6B6B6B" stroke-width="2" stroke-linecap="round" stroke-linejoin="round"/>
<path d="M95.8672 105.535L98.9356 103.951" stroke="#6B6B6B" stroke-width="2" stroke-linecap="round" stroke-linejoin="round"/>
<path d="M94.5762 116.367C95.8481 115.964 97.2283 116.517 97.8642 117.689C98.4117 118.694 99.5165 119.26 100.651 119.12L101.28 119.041C102.539 118.887 103.745 119.601 104.211 120.779L104.257 120.894C104.739 122.111 106.001 122.828 107.296 122.619L107.925 122.517C109.128 122.321 110.321 122.93 110.866 124.023" fill="white"/>
<path d="M94.5762 116.367C95.8481 115.964 97.2283 116.517 97.8642 117.689C98.4117 118.694 99.5165 119.26 100.651 119.12L101.28 119.041C102.539 118.887 103.745 119.601 104.211 120.779L104.257 120.894C104.739 122.111 106.001 122.828 107.296 122.619L107.925 122.517C109.128 122.321 110.321 122.93 110.866 124.023" stroke="#6B6B6B" stroke-width="2" stroke-linecap="round" stroke-linejoin="round"/>
<path d="M122.959 73.9405L120.067 78.1335L117.058 79.2594C117.215 78.6604 118.323 74.3693 118.34 74.0813C118.346 73.9667 118.759 73.9471 119.267 73.9733L119.084 73.3874C114.344 71.7737 110.705 66.8705 110.351 60.9167C109.902 53.4179 114.822 47.0908 121.339 46.7897C127.853 46.4853 133.498 52.3181 133.947 59.8169C134.393 67.3124 129.476 73.6394 122.959 73.9405Z" fill="white" stroke="#494C51" stroke-width="1.5" stroke-linejoin="round"/>
<path d="M119.589 75.3663L117.045 79.2614L115.718 74.7903C110.981 73.0981 107.358 67.9166 107.027 61.6093C106.604 53.6653 111.548 46.9455 118.068 46.6019C124.585 46.2549 130.211 52.415 130.634 60.3589C131.053 68.2996 126.113 75.0194 119.593 75.3631L119.589 75.3663Z" fill="#E8E9E9" stroke="#494C51" stroke-width="1.5" stroke-linecap="round" stroke-linejoin="round"/>
<path d="M117.035 54.5233L116.547 61.266C116.494 62.0057 116.983 62.6767 117.704 62.8535L117.76 62.8665C118.681 63.0924 119.582 62.4312 119.645 61.4853L120.077 54.7295C120.123 54.0094 119.658 53.358 118.963 53.1649C118.035 52.9096 117.104 53.5642 117.035 54.52V54.5233Z" fill="white" stroke="#494C51" stroke-width="1.5" stroke-linejoin="round"/>
<path d="M119.404 68.1688C119.461 67.2016 118.802 66.3755 117.931 66.3237C117.06 66.2718 116.307 67.0139 116.249 67.9811C116.191 68.9483 116.851 69.7744 117.722 69.8263C118.593 69.8781 119.346 69.136 119.404 68.1688Z" fill="white" stroke="#494C51" stroke-width="1.5" stroke-linejoin="round"/>
</svg>
