<svg width="18" height="18" viewBox="0 0 18 18" fill="none" xmlns="http://www.w3.org/2000/svg">
<g clip-path="url(#clip0_5194_12640)">
<path fill-rule="evenodd" clip-rule="evenodd" d="M8.99766 0.993164C4.58498 0.993164 0.992188 4.58596 0.992188 8.99863C0.992188 13.4113 4.58498 17.0002 8.99766 17.0002C13.4103 17.0002 16.9992 13.4113 16.9992 8.99863C16.9992 4.58596 13.4103 0.993164 8.99766 0.993164ZM8.99766 2.32719C12.6894 2.32719 15.6652 5.30692 15.6652 8.99863C15.6652 12.6903 12.6894 15.6662 8.99766 15.6662C5.30594 15.6662 2.32622 12.6903 2.32622 8.99863C2.32622 5.30692 5.30594 2.32719 8.99766 2.32719ZM12.3171 5.78342C12.2291 5.78983 12.1433 5.81362 12.0646 5.85343C11.9859 5.89323 11.9158 5.94825 11.8585 6.0153L7.94372 10.5593L6.10813 8.66382C6.04675 8.6009 5.97353 8.55075 5.8927 8.51622C5.81187 8.4817 5.72501 8.46349 5.63712 8.46265C5.54922 8.4618 5.46203 8.47834 5.38055 8.51131C5.29907 8.54427 5.22491 8.59302 5.16233 8.65474C5.03668 8.77835 4.96507 8.94666 4.96313 9.12291C4.96119 9.29915 5.02909 9.469 5.15199 9.59534L7.49175 12.012C7.55622 12.0786 7.63388 12.131 7.71975 12.166C7.80563 12.2009 7.89785 12.2175 7.99052 12.2148C8.08319 12.2121 8.17428 12.1902 8.25798 12.1503C8.34168 12.1104 8.41615 12.0535 8.47664 11.9833L12.8682 6.88168C12.9838 6.74778 13.0414 6.57348 13.0285 6.39709C13.0155 6.22071 12.9331 6.05668 12.7992 5.94109C12.6655 5.82713 12.4922 5.77045 12.3171 5.78342Z" fill="#1F9A50"/>
</g>
<defs>
<clipPath id="clip0_5194_12640">
<rect width="18" height="18" fill="white"/>
</clipPath>
</defs>
</svg>
