<svg width="16" height="18" viewBox="0 0 16 18" fill="none" xmlns="http://www.w3.org/2000/svg">
<path d="M14.75 3.33333H12.425C12.2509 2.53392 11.7904 1.81562 11.1209 1.29951C10.4515 0.783397 9.61415 0.50103 8.75 0.5H7.25C6.38585 0.50103 5.54849 0.783397 4.87906 1.29951C4.20964 1.81562 3.74907 2.53392 3.575 3.33333H1.25C1.05109 3.33333 0.860322 3.40796 0.71967 3.5408C0.579018 3.67364 0.5 3.8538 0.5 4.04167C0.5 4.22953 0.579018 4.4097 0.71967 4.54253C0.860322 4.67537 1.05109 4.75 1.25 4.75H2V13.9583C2.00119 14.8973 2.39666 15.7975 3.09966 16.4614C3.80267 17.1254 4.7558 17.4989 5.75 17.5H10.25C11.2442 17.4989 12.1973 17.1254 12.9003 16.4614C13.6033 15.7975 13.9988 14.8973 14 13.9583V4.75H14.75C14.9489 4.75 15.1397 4.67537 15.2803 4.54253C15.421 4.4097 15.5 4.22953 15.5 4.04167C15.5 3.8538 15.421 3.67364 15.2803 3.5408C15.1397 3.40796 14.9489 3.33333 14.75 3.33333ZM7.25 1.91667H8.75C9.21521 1.9172 9.66885 2.05364 10.0487 2.30727C10.4286 2.5609 10.7161 2.91931 10.8717 3.33333H5.12825C5.28394 2.91931 5.57143 2.5609 5.95129 2.30727C6.33115 2.05364 6.78479 1.9172 7.25 1.91667ZM12.5 13.9583C12.5 14.5219 12.2629 15.0624 11.841 15.4609C11.419 15.8594 10.8467 16.0833 10.25 16.0833H5.75C5.15326 16.0833 4.58097 15.8594 4.15901 15.4609C3.73705 15.0624 3.5 14.5219 3.5 13.9583V4.75H12.5V13.9583Z" fill="#BF3939"/>
<path d="M6.5 13.25C6.69891 13.25 6.88968 13.1754 7.03033 13.0425C7.17098 12.9097 7.25 12.7295 7.25 12.5417V8.29167C7.25 8.1038 7.17098 7.92364 7.03033 7.7908C6.88968 7.65796 6.69891 7.58333 6.5 7.58333C6.30109 7.58333 6.11032 7.65796 5.96967 7.7908C5.82902 7.92364 5.75 8.1038 5.75 8.29167V12.5417C5.75 12.7295 5.82902 12.9097 5.96967 13.0425C6.11032 13.1754 6.30109 13.25 6.5 13.25Z" fill="#BF3939"/>
<path d="M9.5 13.25C9.69891 13.25 9.88968 13.1754 10.0303 13.0425C10.171 12.9097 10.25 12.7295 10.25 12.5417V8.29167C10.25 8.1038 10.171 7.92364 10.0303 7.7908C9.88968 7.65796 9.69891 7.58333 9.5 7.58333C9.30109 7.58333 9.11032 7.65796 8.96967 7.7908C8.82902 7.92364 8.75 8.1038 8.75 8.29167V12.5417C8.75 12.7295 8.82902 12.9097 8.96967 13.0425C9.11032 13.1754 9.30109 13.25 9.5 13.25Z" fill="#BF3939"/>
</svg>
