<svg xmlns="http://www.w3.org/2000/svg" width="14" height="14" viewBox="0 0 14 14" fill="none">
  <path fill-rule="evenodd" clip-rule="evenodd" d="M6.99479 0.335938C5.67625 0.335938 4.38732 0.726931 3.29099 1.45947C2.19467 2.19202 1.34018 3.23321 0.835598 4.45138C0.331014 5.66955 0.198991 7.01 0.456226 8.30321C0.713461 9.59641 1.3484 10.7843 2.28075 11.7166C3.2131 12.649 4.40099 13.2839 5.69419 13.5412C6.9874 13.7984 8.32784 13.6664 9.54602 13.1618C10.7642 12.6572 11.8054 11.8027 12.5379 10.7064C13.2705 9.61008 13.6615 8.32115 13.6615 7.0026C13.6615 6.12712 13.489 5.26022 13.154 4.45138C12.819 3.64254 12.3279 2.90762 11.7088 2.28856C11.0898 1.6695 10.3549 1.17844 9.54602 0.843407C8.73718 0.508376 7.87027 0.335938 6.99479 0.335938ZM6.99479 12.3359C5.93996 12.3359 4.90882 12.0231 4.03175 11.4371C3.15469 10.8511 2.4711 10.0181 2.06744 9.04358C1.66377 8.06904 1.55815 6.99669 1.76394 5.96212C1.96973 4.92756 2.47768 3.97725 3.22356 3.23137C3.96944 2.48549 4.91975 1.97754 5.95431 1.77175C6.98888 1.56596 8.06123 1.67158 9.03577 2.07525C10.0103 2.47891 10.8433 3.1625 11.4293 4.03956C12.0153 4.91662 12.3281 5.94777 12.3281 7.0026C12.3281 8.41709 11.7662 9.77365 10.766 10.7738C9.76584 11.774 8.40928 12.3359 6.99479 12.3359ZM6.99479 10.3333C7.36298 10.3333 7.66146 10.0349 7.66146 9.66667C7.66146 9.29848 7.36298 9 6.99479 9C6.6266 9 6.32812 9.29848 6.32812 9.66667C6.32812 10.0349 6.6266 10.3333 6.99479 10.3333ZM6.52339 3.86714C6.64841 3.74211 6.81798 3.67188 6.99479 3.67188C7.1716 3.67188 7.34117 3.74211 7.4662 3.86714C7.59122 3.99216 7.66146 4.16173 7.66146 4.33854V7.67188C7.66146 7.84869 7.59122 8.01825 7.4662 8.14328C7.34117 8.2683 7.1716 8.33854 6.99479 8.33854C6.81798 8.33854 6.64841 8.2683 6.52339 8.14328C6.39836 8.01825 6.32812 7.84869 6.32812 7.67188V4.33854C6.32812 4.16173 6.39836 3.99216 6.52339 3.86714Z" fill="#BF3939"/>
</svg>