<svg width="24" height="24" viewBox="0 0 24 24" fill="none" xmlns="http://www.w3.org/2000/svg">
<g id="Icons - 24px" clip-path="url(#clip0_1_97091)">
<g id="Vector">
<path d="M12 17.8837C12.4238 17.8837 12.7674 17.5401 12.7674 17.1163V10.9767C12.7674 10.5529 12.4238 10.2093 12 10.2093C11.5762 10.2093 11.2326 10.5529 11.2326 10.9767V17.1163C11.2326 17.5401 11.5762 17.8837 12 17.8837Z" fill="#992929"/>
<path d="M12 6.88372C12.5651 6.88372 13.0233 7.34185 13.0233 7.90698C13.0233 8.47211 12.5651 8.93023 12 8.93023C11.4349 8.93023 10.9767 8.47211 10.9767 7.90698C10.9767 7.34185 11.4349 6.88372 12 6.88372Z" fill="#992929"/>
<path fill-rule="evenodd" clip-rule="evenodd" d="M1 12C1 5.92487 5.92487 1 12 1C18.0751 1 23 5.92487 23 12C23 18.0751 18.0751 23 12 23C5.92487 23 1 18.0751 1 12ZM12 2.53488C6.77256 2.53488 2.53488 6.77256 2.53488 12C2.53488 17.2274 6.77256 21.4651 12 21.4651C17.2274 21.4651 21.4651 17.2274 21.4651 12C21.4651 6.77256 17.2274 2.53488 12 2.53488Z" fill="#992929"/>
<path d="M12 17.8837C12.4238 17.8837 12.7674 17.5401 12.7674 17.1163V10.9767C12.7674 10.5529 12.4238 10.2093 12 10.2093C11.5762 10.2093 11.2326 10.5529 11.2326 10.9767V17.1163C11.2326 17.5401 11.5762 17.8837 12 17.8837Z" stroke="#992929" stroke-width="0.5"/>
<path d="M12 6.88372C12.5651 6.88372 13.0233 7.34185 13.0233 7.90698C13.0233 8.47211 12.5651 8.93023 12 8.93023C11.4349 8.93023 10.9767 8.47211 10.9767 7.90698C10.9767 7.34185 11.4349 6.88372 12 6.88372Z" stroke="#992929" stroke-width="0.5"/>
<path fill-rule="evenodd" clip-rule="evenodd" d="M1 12C1 5.92487 5.92487 1 12 1C18.0751 1 23 5.92487 23 12C23 18.0751 18.0751 23 12 23C5.92487 23 1 18.0751 1 12ZM12 2.53488C6.77256 2.53488 2.53488 6.77256 2.53488 12C2.53488 17.2274 6.77256 21.4651 12 21.4651C17.2274 21.4651 21.4651 17.2274 21.4651 12C21.4651 6.77256 17.2274 2.53488 12 2.53488Z" stroke="#992929" stroke-width="0.5"/>
</g>
</g>
<defs>
<clipPath id="clip0_1_97091">
<rect width="24" height="24" fill="white"/>
</clipPath>
</defs>
</svg>
