<svg xmlns="http://www.w3.org/2000/svg" width="18" height="18" viewBox="0 0 18 18" fill="none">
  <path d="M12.6973 8.54583C12.8248 8.66241 12.8974 8.82723 12.8974 9C12.8974 9.17277 12.8248 9.33759 12.6973 9.45417L9.10755 12.7362C8.85672 12.9656 8.46747 12.9481 8.23813 12.6973C8.0088 12.4465 8.02623 12.0572 8.27706 11.8279L10.697 9.61538L1.61538 9.61538C1.27552 9.61538 1 9.33987 1 9C1 8.66013 1.27552 8.38461 1.61538 8.38461L10.697 8.38461L8.27706 6.17212C8.02623 5.94279 8.0088 5.55354 8.23813 5.30271C8.46747 5.05187 8.85672 5.03445 9.10755 5.26378L12.6973 8.54583Z" fill="#935ED6"/>
  <path d="M11.4615 15.7692C11.1217 15.7692 10.8462 16.0447 10.8462 16.3846C10.8462 16.7245 11.1217 17 11.4615 17L11.5066 17C12.6287 17 13.5332 17 14.2445 16.9044C14.9831 16.8051 15.6049 16.5927 16.0988 16.0988C16.5927 15.6049 16.8051 14.9831 16.9044 14.2445C17 13.5332 17 12.6287 17 11.5066L17 6.49344C17 5.37131 17 4.46685 16.9044 3.75549C16.8051 3.01694 16.5927 2.39509 16.0988 1.90121C15.6049 1.40733 14.9831 1.19491 14.2445 1.09561C13.5332 0.99997 12.6287 0.999983 11.5066 1L11.4615 1C11.1217 1 10.8462 1.27552 10.8462 1.61539C10.8462 1.95525 11.1217 2.23077 11.4615 2.23077C12.6393 2.23077 13.4607 2.23208 14.0805 2.3154C14.6826 2.39635 15.0014 2.54441 15.2285 2.7715C15.4556 2.99858 15.6036 3.31741 15.6846 3.91948C15.7679 4.53926 15.7692 5.36069 15.7692 6.53846L15.7692 11.4615C15.7692 12.6393 15.7679 13.4607 15.6846 14.0805C15.6036 14.6826 15.4556 15.0014 15.2285 15.2285C15.0014 15.4556 14.6826 15.6036 14.0805 15.6846C13.4607 15.7679 12.6393 15.7692 11.4615 15.7692Z" fill="#935ED6"/>
</svg>