<svg width="24" height="23" viewBox="0 0 24 23" fill="none" xmlns="http://www.w3.org/2000/svg">
<g clip-path="url(#clip0_3038_4083)">
<path d="M15.3 2.14994V14.7199H12.54L9.47 18.2599L12.51 22.3199H1.96C1.15 22.3199 0.5 21.6699 0.5 20.8599V2.14994C0.5 1.33994 1.15 0.689941 1.96 0.689941H13.84C14.65 0.689941 15.3 1.33994 15.3 2.14994Z" stroke="#1E2528" stroke-width="1.2" stroke-linecap="round" stroke-linejoin="round"/>
<path d="M11.8802 12.07C12.5098 12.07 13.0202 11.5596 13.0202 10.93C13.0202 10.3004 12.5098 9.79004 11.8802 9.79004C11.2506 9.79004 10.7402 10.3004 10.7402 10.93C10.7402 11.5596 11.2506 12.07 11.8802 12.07Z" stroke="#1E2528" stroke-width="1.2" stroke-linecap="round" stroke-linejoin="round"/>
<path d="M22.5207 16.1202V20.9102C22.5207 21.6902 21.9007 22.3202 21.1307 22.3202H12.5107L9.4707 18.2602L12.5407 14.7202H21.1307C21.9007 14.7202 22.5207 15.3502 22.5207 16.1202Z" stroke="#1E2528" stroke-width="1.2" stroke-linecap="round" stroke-linejoin="round"/>
<path d="M11.8101 18.8999C12.4501 18.8999 12.4501 17.8999 11.8101 17.8999C11.1701 17.8999 11.1701 18.8999 11.8101 18.8999Z" fill="#1E2528"/>
<path d="M11.8104 18.3599C11.8104 18.3599 13.0404 20.2199 9.10041 19.8699C5.16041 19.5199 7.42041 17.2499 9.49041 17.7999" stroke="#1E2528" stroke-width="1.2" stroke-linecap="round" stroke-linejoin="round"/>
</g>
<defs>
<clipPath id="clip0_3038_4083">
<rect width="23.07" height="23" fill="white"/>
</clipPath>
</defs>
</svg>
