<svg width="24" height="24" viewBox="0 0 24 24" fill="none" xmlns="http://www.w3.org/2000/svg">
<g clip-path="url(#clip0_4524_114290)">
<path d="M0.490234 5.75977L0.510234 23.4098M23.4502 11.3598L23.4302 23.4098M0.720234 9.96977C0.720234 9.96977 4.14023 9.71977 3.89023 13.2898M23.3002 19.4298V19.7298H0.520234V16.3998C0.520234 14.8798 1.75023 13.6498 3.27023 13.6498H12.0102V19.4298H23.3002ZM23.3802 15.0298V19.4298H14.6902V13.0398H21.3902C22.4802 13.0398 23.3802 13.9398 23.3802 15.0298ZM14.6902 13.1598V19.4198H12.0102V13.1598C12.0102 12.5598 12.4902 12.0798 13.0902 12.0798H13.6102C14.2102 12.0798 14.6902 12.5598 14.6902 13.1598Z" stroke="#D2D3D4" stroke-width="1.5" stroke-linecap="round" stroke-linejoin="round"/>
</g>
<defs>
<clipPath id="clip0_4524_114290">
<rect width="24" height="24" fill="white"/>
</clipPath>
</defs>
</svg>
