<svg width="24" height="24" viewBox="0 0 24 24" fill="none" xmlns="http://www.w3.org/2000/svg">
<path d="M16.9961 15.0706L22.212 8.02145C22.4595 7.69145 22.5695 7.30645 22.5695 6.93062C22.5695 6.37145 22.3128 5.82145 21.8361 5.46395C21.0203 4.85895 19.8745 5.03312 19.2786 5.83979L16.9961 8.91979M16.9961 15.0706L14.7136 18.1506L11.2578 19.8373L11.7895 15.9506L16.9961 8.91979M16.9961 15.0706L16.9959 20.9286C16.9959 21.6894 16.3817 22.3036 15.6209 22.3036H2.83339C2.07255 22.3036 1.44922 21.6894 1.44922 20.9286V4.62109C1.44922 3.86026 2.07255 3.24609 2.83339 3.24609H15.6209C16.3817 3.24609 16.9959 3.86026 16.9959 4.62109L16.9961 8.91979M3.62109 1.50391L3.65776 4.84057M7.34375 1.50391L7.37125 4.84057M11.0566 1.50391L11.0933 4.84057M14.7773 1.50391L14.8048 4.84057M4.2168 8.93848H10.9268M4.2168 13.4941H8.44263" stroke="#1C87C3" stroke-width="1.5" stroke-linecap="round" stroke-linejoin="round"/>
</svg>
