<svg width="70" height="72" viewBox="0 0 70 72" fill="none" xmlns="http://www.w3.org/2000/svg">
<path d="M68.2967 52.8055L68.2865 53.0997L68.22 54.788C68.1893 55.5145 67.8439 56.2103 67.2326 56.6068C67.074 56.7091 66.9 56.7935 66.7159 56.8549L46.9116 63.4546L24.9433 70.7782C24.2628 71.0059 23.5491 70.8908 22.9889 70.5275C22.5873 70.2692 22.265 69.8804 22.0911 69.3943L1.06407 11.1097C0.951513 10.8002 0.936165 10.4651 1.01546 10.1453L1.98496 7.91726L1.98751 7.91214L2.02844 7.82261L2.04379 7.78424H2.04635L3.88301 9.06326L5.11598 9.91764L39.4012 4.08789L64.7718 50.7156L68.2967 52.8055Z" fill="#8C79B5" stroke="black" stroke-width="0.649996" stroke-linecap="round" stroke-linejoin="round"/>
<g style="mix-blend-mode:multiply">
<path d="M22.9889 70.5265C22.5873 70.2682 22.265 69.8793 22.0911 69.3933L1.06407 11.1086C0.951513 10.7991 0.936165 10.464 1.01546 10.1443L2.04379 7.7832L3.88301 9.06222C10.8102 28.4086 24.0607 65.1726 24.823 65.4258C25.5137 65.656 24.1272 68.5185 22.9889 70.5265Z" fill="#C1BBD2"/>
</g>
<path d="M68.2857 53.0979C68.2269 53.3588 68.0376 53.5864 67.7588 53.6811L50.7326 59.3574L24.3542 68.1493C23.9423 68.2874 23.4947 68.07 23.3463 67.6607L1.98676 8.45259C1.92026 8.27097 1.92537 8.08168 1.98421 7.91541C1.98421 7.91285 1.98676 7.91029 1.98676 7.91029L2.02769 7.82076C2.02769 7.82076 2.03792 7.79518 2.0456 7.78495C2.15815 7.58542 2.35768 7.4345 2.60581 7.39101L39.6077 1.10082C39.9453 1.04454 40.2804 1.20826 40.4442 1.5101L68.2116 52.5377C68.2576 52.6246 68.2883 52.7142 68.3011 52.8037C68.3139 52.9035 68.3113 53.0032 68.2857 53.0979Z" fill="#E0D5F2" stroke="black" stroke-width="0.649996" stroke-linecap="round" stroke-linejoin="round"/>
<g style="mix-blend-mode:multiply">
<path d="M13.0444 27.9922L27.1136 62.5256L60.8796 51.7819L59.3447 48.4564L13.0444 27.9922Z" fill="#C1BBD2"/>
</g>
<path d="M23.614 68.3984L23.0205 70.4551" stroke="black" stroke-width="0.649996" stroke-linecap="round" stroke-linejoin="round"/>
<path d="M10.5338 11.2946L33.2184 7.50109C31.4022 3.54126 27.1558 1.29532 22.8609 2.01668L15.4221 3.27011C11.69 3.89939 9.38009 7.69039 10.5338 11.2946Z" fill="white" stroke="black" stroke-width="0.649996" stroke-linejoin="round"/>
<path d="M5.70605 9.2864C5.70605 9.2864 23.7606 60.1195 33.2176 58.577L67.948 48.1787C67.948 48.1787 53.4568 40.8627 37.6686 3.50781L5.70605 9.2864Z" fill="white" stroke="black" stroke-width="0.649996" stroke-linejoin="round"/>
<g style="mix-blend-mode:multiply">
<path d="M19.9016 2.60742C19.9016 2.60742 12.4372 3.75342 10.3115 8.45252L12.3861 9.5934L19.9016 2.60742Z" fill="#C1BBD2"/>
</g>
<path d="M12.2936 8.05436L12.4983 7.77297C14.6291 4.85682 17.8139 2.88202 21.3746 2.27065L27.8106 1.16559C31.0389 0.610493 34.5331 1.38813 35.3005 4.45777C35.3005 4.46033 35.3466 4.7059 35.4003 4.98472C35.4924 5.47075 35.1752 5.93887 34.6892 6.03096C31.2409 6.69348 18.5096 8.73735 13.2273 9.57894C12.3729 9.71452 11.7846 8.75014 12.2936 8.0518V8.05436Z" fill="#8C79B5" stroke="black" stroke-width="0.649996" stroke-linecap="round" stroke-linejoin="round"/>
<path d="M21.8331 23.9243L26.9671 37.0061C27.141 37.4486 27.6168 37.6942 28.0798 37.5791L43.0929 33.8265C43.6736 33.6807 43.9754 33.0412 43.7196 32.5014L37.4269 19.215C37.3348 19.018 37.1762 18.862 36.9818 18.7674L26.9978 13.948C26.5143 13.7153 25.9336 13.9276 25.7188 14.4187L21.8459 23.1953C21.7436 23.4255 21.7385 23.689 21.8306 23.9243H21.8331Z" fill="white" stroke="#A4A1A8" stroke-width="0.649996" stroke-linejoin="round"/>
<g style="mix-blend-mode:multiply">
<path d="M55.9776 39.7266C59.2326 35.3866 57.8125 28.8242 52.8057 25.0691C47.7989 21.314 41.1014 21.7881 37.8463 26.1281C34.5913 30.4681 36.0115 37.0305 41.0183 40.7856C46.0251 44.5407 52.7226 44.0666 55.9776 39.7266Z" fill="#C1BBD2"/>
</g>
<path d="M53.6726 47.4117C60.8084 47.4117 66.5932 41.5158 66.5932 34.2429C66.5932 26.9701 60.8084 21.0742 53.6726 21.0742C46.5367 21.0742 40.752 26.9701 40.752 34.2429C40.752 41.5158 46.5367 47.4117 53.6726 47.4117Z" fill="#E0D5F2" stroke="black" stroke-width="0.649996" stroke-linecap="round" stroke-linejoin="round"/>
<path d="M68.8617 34.6277C68.8617 39.4547 66.3114 43.678 62.5101 45.97C60.5839 47.1314 58.338 47.7964 55.9411 47.7964C54.8667 47.7964 53.8256 47.6634 52.828 47.4102C47.1952 45.993 43.0205 40.8079 43.0205 34.6277C43.0205 29.1587 46.2922 24.4672 50.9504 22.4771C52.4852 21.8222 54.171 21.459 55.9411 21.459C58.5759 21.459 61.0265 22.2622 63.0678 23.6435C66.5595 26.002 68.8617 30.0412 68.8617 34.6277Z" fill="#7D61BF" stroke="black" stroke-width="0.649996" stroke-linecap="round" stroke-linejoin="round"/>
<path d="M50.881 37.6048L55.4445 38.894L61.0159 27.7896C61.2512 27.3189 61.8268 27.1348 62.2923 27.3803C62.7451 27.6182 62.9216 28.1759 62.6888 28.6312L56.4728 40.8893L50.441 39.1345C50.0112 39.0091 49.7682 38.5538 49.9038 38.1266C50.0343 37.7173 50.4666 37.4845 50.8784 37.6022L50.881 37.6048Z" fill="white" stroke="black" stroke-width="0.649996" stroke-linejoin="round"/>
<path d="M31.9994 32.3938L29.114 33.0512L27.8247 29.8332L30.7102 29.1758L31.9994 32.3938Z" fill="white" stroke="#A4A1A8" stroke-width="0.649996" stroke-linejoin="round"/>
<path d="M29.6894 26.2317L26.8039 26.8891L25.5146 23.6736L28.4001 23.0137L29.6894 26.2317Z" fill="white" stroke="#A4A1A8" stroke-width="0.649996" stroke-linejoin="round"/>
<path d="M28.153 3.04516L29.4908 2.81749C30.0382 2.7254 30.5626 3.07329 30.6905 3.61048C30.8312 4.2065 30.4373 4.79485 29.8336 4.88949L18.9287 6.75686" fill="#8C79B5"/>
<path d="M28.153 3.04516L29.4908 2.81749C30.0382 2.7254 30.5626 3.07329 30.6905 3.61048C30.8312 4.2065 30.4373 4.79485 29.8336 4.88949L18.9287 6.75686" stroke="black" stroke-width="0.649996" stroke-linecap="round" stroke-linejoin="round"/>
<g style="mix-blend-mode:multiply">
<path d="M68.8621 34.6268C68.8621 39.4538 66.3118 43.6771 62.5105 45.9691C57.9777 44.3345 54.7393 39.9935 54.7393 34.8979C54.7393 29.8023 58.2463 25.1109 63.0682 23.6426C66.5599 26.0011 68.8621 30.0402 68.8621 34.6268Z" fill="#C1BBD2"/>
</g>
<g style="mix-blend-mode:overlay" opacity="0.48">
<path d="M49.8671 46.25C49.9515 46.3037 42.2058 39.7577 44.8278 31.0579C47.6493 21.7057 56.3287 21.4627 56.3287 21.4627C56.3287 21.4627 47.1709 20.57 43.2802 31.5695C43.2802 31.5695 40.3896 40.208 49.8671 46.2475V46.25Z" fill="white"/>
</g>
<g style="mix-blend-mode:overlay" opacity="0.48">
<path d="M6.32763 6.75977L16.0405 47.4094L1.98921 8.45574C1.98921 8.45574 1.60807 7.60136 3.10451 7.30974C4.60096 7.01813 6.32763 6.76232 6.32763 6.76232V6.75977Z" fill="white"/>
</g>
<g style="mix-blend-mode:overlay" opacity="0.48">
<path d="M20.7167 2.66686C20.7167 2.66686 17.3632 7.87756 21.7272 8.21266L13.0426 9.59144C13.0426 9.59144 11.4413 9.03891 12.4978 7.77268C13.5543 6.50646 17.5115 1.77922 20.7167 2.66686Z" fill="white"/>
</g>
<g style="mix-blend-mode:multiply">
<path d="M29.1054 1.09158C29.1054 1.09158 30.9165 1.26552 32.395 2.33478C33.7789 3.33497 33.3108 5.51185 31.6481 5.90323L22.0913 8.15429L34.687 6.03113C34.687 6.03113 35.5542 5.99276 35.2984 4.45794C35.0426 2.92313 32.9962 0.620902 29.1054 1.09158Z" fill="#C1BBD2"/>
</g>
<g style="mix-blend-mode:multiply">
<path d="M68.286 53.0993L68.2195 54.7876C68.1888 55.5141 67.8435 56.2099 67.2321 56.6063C67.0735 56.7087 66.8996 56.7931 66.7154 56.8545L46.9111 63.4542C46.9776 63.3647 48.3385 61.505 50.7328 59.3588C54.4317 56.0436 60.6068 52.0351 68.2962 52.8051H68.3014C68.3142 52.9049 68.3116 53.0046 68.286 53.0993Z" fill="#C1BBD2"/>
</g>
<path d="M25.0098 43.7591L31.7169 42.0605" stroke="#A4A1A8" stroke-width="0.649996" stroke-linejoin="round"/>
<path d="M33.5088 41.5487L36.5784 40.7812" stroke="#A4A1A8" stroke-width="0.649996" stroke-linejoin="round"/>
<path d="M26.4858 46.3229L30.9496 45.1309" stroke="#A4A1A8" stroke-width="0.649996" stroke-linejoin="round"/>
</svg>
