<svg width="66" height="25" viewBox="0 0 66 25" fill="none" xmlns="http://www.w3.org/2000/svg">
<path opacity="0.5" fill-rule="evenodd" clip-rule="evenodd" d="M54.0162 20.4004H8.984C4.81434 20.4004 1.5 17.3004 1.5 13.4004C1.5 9.50039 4.81434 6.40039 8.984 6.40039L54.0162 6.40039C58.1859 6.40039 61.5002 9.50039 61.5002 13.4004C61.5002 17.3004 58.1859 20.4004 54.0162 20.4004Z" fill="#8FFF3A"/>
<g filter="url(#filter0_d_333_71311)">
<path d="M54 2.89258C52.625 2.89258 51.3281 3.1582 50.1094 3.68945C48.8906 4.20508 47.8281 4.91602 46.9219 5.82227C46.0156 6.72852 45.3047 7.79102 44.7891 9.00977C44.2578 10.2285 43.9922 11.5254 43.9922 12.9004C43.9922 14.2754 44.2578 15.5723 44.7891 16.791C45.3047 18.0098 46.0156 19.0723 46.9219 19.9785C47.8281 20.8848 48.8906 21.5957 50.1094 22.1113C51.3281 22.6426 52.625 22.9082 54 22.9082C55.375 22.9082 56.6719 22.6426 57.8906 22.1113C59.1094 21.5957 60.1719 20.8848 61.0781 19.9785C61.9844 19.0723 62.6953 18.0098 63.2109 16.791C63.7422 15.5723 64.0078 14.2754 64.0078 12.9004C64.0078 11.5254 63.7422 10.2285 63.2109 9.00977C62.6953 7.79102 61.9844 6.72852 61.0781 5.82227C60.1719 4.91602 59.1094 4.20508 57.8906 3.68945C56.6719 3.1582 55.375 2.89258 54 2.89258ZM52.0078 17.8926L46.9922 12.9004L48.3984 11.4941L52.0078 15.0801L59.6016 7.48633L61.0078 8.89258L52.0078 17.8926Z" fill="#61903D"/>
</g>
<defs>
<filter id="filter0_d_333_71311" x="42.9922" y="2.39258" width="22.0156" height="22.0156" filterUnits="userSpaceOnUse" color-interpolation-filters="sRGB">
<feFlood flood-opacity="0" result="BackgroundImageFix"/>
<feColorMatrix in="SourceAlpha" type="matrix" values="0 0 0 0 0 0 0 0 0 0 0 0 0 0 0 0 0 0 127 0" result="hardAlpha"/>
<feOffset dy="0.5"/>
<feGaussianBlur stdDeviation="0.5"/>
<feColorMatrix type="matrix" values="0 0 0 0 0 0 0 0 0 0 0 0 0 0 0 0 0 0 0.23 0"/>
<feBlend mode="normal" in2="BackgroundImageFix" result="effect1_dropShadow_333_71311"/>
<feBlend mode="normal" in="SourceGraphic" in2="effect1_dropShadow_333_71311" result="shape"/>
</filter>
</defs>
</svg>
