<svg width="64" height="24" viewBox="0 0 64 24" fill="none" xmlns="http://www.w3.org/2000/svg">
<path opacity="0.38" fill-rule="evenodd" clip-rule="evenodd" d="M55.5162 18.4004H10.484C6.31434 18.4004 3 15.3004 3 11.4004C3 7.50039 6.31434 4.40039 10.484 4.40039L55.5162 4.40039C59.6859 4.40039 63.0002 7.50039 63.0002 11.4004C63.0002 15.3004 59.6859 18.4004 55.5162 18.4004Z" fill="#F4F4F4" stroke="#D4D4D4"/>
<g filter="url(#filter0_d_333_71299)">
<path fill-rule="evenodd" clip-rule="evenodd" d="M43 11.4004C43 16.9232 38.5228 21.4004 33 21.4004C27.4772 21.4004 23 16.9232 23 11.4004C23 5.87754 27.4772 1.40039 33 1.40039C38.5228 1.40039 43 5.87754 43 11.4004ZM38 10.4004H28V12.4004H38V10.4004Z" fill="#367BBF"/>
<path d="M28 10.4004V9.90039H27.5V10.4004H28ZM38 10.4004H38.5V9.90039H38V10.4004ZM28 12.4004H27.5V12.9004H28V12.4004ZM38 12.4004V12.9004H38.5V12.4004H38ZM33 21.9004C38.799 21.9004 43.5 17.1994 43.5 11.4004H42.5C42.5 16.6471 38.2467 20.9004 33 20.9004V21.9004ZM22.5 11.4004C22.5 17.1994 27.201 21.9004 33 21.9004V20.9004C27.7533 20.9004 23.5 16.6471 23.5 11.4004H22.5ZM33 0.900391C27.201 0.900391 22.5 5.6014 22.5 11.4004H23.5C23.5 6.15369 27.7533 1.90039 33 1.90039V0.900391ZM43.5 11.4004C43.5 5.6014 38.799 0.900391 33 0.900391V1.90039C38.2467 1.90039 42.5 6.15369 42.5 11.4004H43.5ZM28 10.9004H38V9.90039H28V10.9004ZM28.5 12.4004V10.4004H27.5V12.4004H28.5ZM38 11.9004H28V12.9004H38V11.9004ZM37.5 10.4004V12.4004H38.5V10.4004H37.5Z" fill="#367BBF"/>
</g>
<defs>
<filter id="filter0_d_333_71299" x="21.5" y="0.400391" width="23" height="23" filterUnits="userSpaceOnUse" color-interpolation-filters="sRGB">
<feFlood flood-opacity="0" result="BackgroundImageFix"/>
<feColorMatrix in="SourceAlpha" type="matrix" values="0 0 0 0 0 0 0 0 0 0 0 0 0 0 0 0 0 0 127 0" result="hardAlpha"/>
<feOffset dy="0.5"/>
<feGaussianBlur stdDeviation="0.5"/>
<feColorMatrix type="matrix" values="0 0 0 0 0 0 0 0 0 0 0 0 0 0 0 0 0 0 0.23 0"/>
<feBlend mode="normal" in2="BackgroundImageFix" result="effect1_dropShadow_333_71299"/>
<feBlend mode="normal" in="SourceGraphic" in2="effect1_dropShadow_333_71299" result="shape"/>
</filter>
</defs>
</svg>
