<svg width="18" height="18" viewBox="0 0 18 18" fill="none" xmlns="http://www.w3.org/2000/svg">
<path d="M15.75 3.33333H13.425C13.2509 2.53392 12.7904 1.81562 12.1209 1.29951C11.4515 0.783397 10.6142 0.50103 9.75 0.5H8.25C7.38585 0.50103 6.54849 0.783397 5.87906 1.29951C5.20964 1.81562 4.74907 2.53392 4.575 3.33333H2.25C2.05109 3.33333 1.86032 3.40796 1.71967 3.5408C1.57902 3.67364 1.5 3.8538 1.5 4.04167C1.5 4.22953 1.57902 4.4097 1.71967 4.54253C1.86032 4.67537 2.05109 4.75 2.25 4.75H3V13.9583C3.00119 14.8973 3.39666 15.7975 4.09966 16.4614C4.80267 17.1254 5.7558 17.4989 6.75 17.5H11.25C12.2442 17.4989 13.1973 17.1254 13.9003 16.4614C14.6033 15.7975 14.9988 14.8973 15 13.9583V4.75H15.75C15.9489 4.75 16.1397 4.67537 16.2803 4.54253C16.421 4.4097 16.5 4.22953 16.5 4.04167C16.5 3.8538 16.421 3.67364 16.2803 3.5408C16.1397 3.40796 15.9489 3.33333 15.75 3.33333ZM8.25 1.91667H9.75C10.2152 1.9172 10.6688 2.05364 11.0487 2.30727C11.4286 2.5609 11.7161 2.91931 11.8717 3.33333H6.12825C6.28394 2.91931 6.57143 2.5609 6.95129 2.30727C7.33115 2.05364 7.78479 1.9172 8.25 1.91667ZM13.5 13.9583C13.5 14.5219 13.2629 15.0624 12.841 15.4609C12.419 15.8594 11.8467 16.0833 11.25 16.0833H6.75C6.15326 16.0833 5.58097 15.8594 5.15901 15.4609C4.73705 15.0624 4.5 14.5219 4.5 13.9583V4.75H13.5V13.9583Z" fill="#BF3939"/>
<path d="M7.5 13.25C7.69891 13.25 7.88968 13.1754 8.03033 13.0425C8.17098 12.9097 8.25 12.7295 8.25 12.5417V8.29167C8.25 8.1038 8.17098 7.92364 8.03033 7.7908C7.88968 7.65796 7.69891 7.58333 7.5 7.58333C7.30109 7.58333 7.11032 7.65796 6.96967 7.7908C6.82902 7.92364 6.75 8.1038 6.75 8.29167V12.5417C6.75 12.7295 6.82902 12.9097 6.96967 13.0425C7.11032 13.1754 7.30109 13.25 7.5 13.25Z" fill="#BF3939"/>
<path d="M10.5 13.25C10.6989 13.25 10.8897 13.1754 11.0303 13.0425C11.171 12.9097 11.25 12.7295 11.25 12.5417V8.29167C11.25 8.1038 11.171 7.92364 11.0303 7.7908C10.8897 7.65796 10.6989 7.58333 10.5 7.58333C10.3011 7.58333 10.1103 7.65796 9.96967 7.7908C9.82902 7.92364 9.75 8.1038 9.75 8.29167V12.5417C9.75 12.7295 9.82902 12.9097 9.96967 13.0425C10.1103 13.1754 10.3011 13.25 10.5 13.25Z" fill="#BF3939"/>
</svg>
