<svg width="22" height="22" viewBox="0 0 22 22" fill="none" xmlns="http://www.w3.org/2000/svg">
<path d="M10.4162 10.9941H6.04477C5.77428 10.9941 5.51252 11.1167 5.33802 11.3268L2.09219 15.2836C1.82171 15.6163 1.81298 16.089 2.07474 16.4304L5.33802 20.6498C5.51252 20.8687 5.77428 21 6.06222 21H20.0838C20.5899 21 21 20.5886 21 20.0808V11.9133C21 11.4056 20.5899 10.9941 20.0838 10.9941H15.3722M10.4162 10.9941L9.04629 12.85L8.47041 17.0957L12.231 15.2573L14.7178 11.887L15.3722 10.9941M10.4162 10.9941L10.6256 10.714L17.2045 1.80238C17.8502 0.92697 19.0979 0.734381 19.9879 1.39093C20.5027 1.78487 20.7906 2.3889 20.7906 2.99293C20.7906 3.40437 20.6684 3.82456 20.398 4.19223L15.5816 10.714L15.3722 10.9941M3.75001 15.7476C3.75001 15.7476 7.51063 15.9051 5.47762 18.5138C4.02922 20.3785 1.07133 19.967 1.00152 18.1987C0.957897 17.2533 1.86533 16.6142 1.86533 16.6142" stroke="#D2D3D4" stroke-width="1.5" stroke-linecap="round" stroke-linejoin="round"/>
</svg>
