<svg width="24" height="24" viewBox="0 0 24 24" fill="none" xmlns="http://www.w3.org/2000/svg">
<path d="M15.1391 18.1502L14.8491 18.5402L11.0791 20.3802L11.6591 16.1402L15.1391 11.4402M15.1391 18.1502V22.3802C15.1391 22.9602 14.6791 23.4202 14.1091 23.4202H1.82906C1.24906 23.4202 0.789062 22.9602 0.789062 22.3802V1.78023C0.789062 1.20023 1.24906 0.740234 1.82906 0.740234H14.1091C14.6791 0.740234 15.1391 1.20023 15.1391 1.78023V11.4402M15.1391 18.1502L23.0291 7.49023C23.2991 7.13023 23.4191 6.71023 23.4191 6.30023C23.4191 5.69023 23.1391 5.09023 22.6191 4.70023C21.7291 4.04023 20.4791 4.23023 19.8291 5.11023L15.1391 11.4402M13.1191 9.98023C13.1191 10.6209 12.5997 11.1402 11.9591 11.1402C11.3184 11.1402 10.7991 10.6209 10.7991 9.98023C10.7991 9.33958 11.3184 8.82023 11.9591 8.82023C12.5997 8.82023 13.1191 9.33958 13.1191 9.98023Z" stroke="#D2D3D4" stroke-width="1.5" stroke-linecap="round" stroke-linejoin="round"/>
</svg>
