<svg width="20" height="20" viewBox="0 0 20 20" fill="none" xmlns="http://www.w3.org/2000/svg">
<path d="M14.9987 13.3327H5.41536C3.5737 13.3327 2.08203 11.841 2.08203 9.99935C2.08203 8.15768 3.5737 6.66602 5.41536 6.66602H15.832C16.982 6.66602 17.9154 7.59935 17.9154 8.74935C17.9154 9.89935 16.982 10.8327 15.832 10.8327H7.08203C6.6237 10.8327 6.2487 10.4577 6.2487 9.99935C6.2487 9.54102 6.6237 9.16602 7.08203 9.16602H14.9987V7.91602H7.08203C5.93203 7.91602 4.9987 8.84935 4.9987 9.99935C4.9987 11.1493 5.93203 12.0827 7.08203 12.0827H15.832C17.6737 12.0827 19.1654 10.591 19.1654 8.74935C19.1654 6.90768 17.6737 5.41602 15.832 5.41602H5.41536C2.88203 5.41602 0.832031 7.46602 0.832031 9.99935C0.832031 12.5327 2.88203 14.5827 5.41536 14.5827H14.9987V13.3327Z" fill="#121212"/>
<path d="M5.41536 13.8327H14.4987V14.0827H5.41536C3.15817 14.0827 1.33203 12.2565 1.33203 9.99935C1.33203 7.74216 3.15817 5.91602 5.41536 5.91602H15.832C17.3976 5.91602 18.6654 7.18382 18.6654 8.74935C18.6654 10.3149 17.3976 11.5827 15.832 11.5827H7.08203C6.20817 11.5827 5.4987 10.8732 5.4987 9.99935C5.4987 9.12549 6.20817 8.41602 7.08203 8.41602H14.4987V8.66602H7.08203C6.34755 8.66602 5.7487 9.26487 5.7487 9.99935C5.7487 10.7338 6.34756 11.3327 7.08203 11.3327H15.832C17.2582 11.3327 18.4154 10.1755 18.4154 8.74935C18.4154 7.32321 17.2582 6.16602 15.832 6.16602H5.41536C3.29756 6.16602 1.58203 7.88154 1.58203 9.99935C1.58203 12.1172 3.29756 13.8327 5.41536 13.8327Z" stroke="#F8F9FD"/>
</svg>
