<svg width="23" height="24" viewBox="0 0 23 24" fill="none" xmlns="http://www.w3.org/2000/svg">
<g clip-path="url(#clip0_3038_4094)">
<path d="M8.69094 0.75C8.60094 0.81 8.52094 0.87 8.44094 0.93L1.96094 5.91L8.42094 0.93C8.51094 0.86 8.60094 0.8 8.69094 0.75Z" stroke="#1E2528" stroke-width="1.2" stroke-linecap="round" stroke-linejoin="round"/>
<path d="M17.9307 7.39016V8.53016H17.4407V8.16016C17.4407 7.54016 16.9407 7.04016 16.3207 7.04016C15.7007 7.04016 15.2007 7.54016 15.2007 8.16016V8.53016H13.2607C11.8507 8.53016 10.7107 9.67016 10.7107 11.0802V19.3302H3.1007C2.0607 19.3302 1.2207 18.4802 1.2207 17.4502V7.39016C1.2207 7.17016 1.2607 6.96016 1.3307 6.76016C1.3807 6.63016 1.4507 6.50016 1.5207 6.38016C1.5607 6.32016 1.6007 6.26016 1.6507 6.21016C1.7007 6.15016 1.7407 6.10016 1.8007 6.05016C1.8507 6.00016 1.9007 5.95016 1.9607 5.91016L8.4407 0.930157C8.5207 0.870157 8.6007 0.810157 8.6907 0.750157C9.3307 0.410157 10.1307 0.460157 10.7307 0.930157L17.2007 5.91016C17.2607 5.95016 17.3107 6.00016 17.3607 6.05016C17.4107 6.10016 17.4607 6.15016 17.5107 6.21016C17.6007 6.32016 17.6707 6.44016 17.7407 6.56016C17.8707 6.82016 17.9307 7.10016 17.9307 7.39016Z" stroke="#1E2528" stroke-width="1.2" stroke-linecap="round" stroke-linejoin="round"/>
<path d="M21.7209 11.0798V20.0598C21.7209 21.4498 20.5809 22.5898 19.1909 22.5898H13.2609C11.8509 22.5898 10.7109 21.4498 10.7109 20.0598V11.0798C10.7109 9.66979 11.8509 8.52979 13.2609 8.52979H14.3509C14.1809 8.52979 14.0509 8.66979 14.0509 8.83979V10.1998C14.0509 10.3598 14.1809 10.4998 14.3509 10.4998H18.2009C18.3609 10.4998 18.5009 10.3598 18.5009 10.1998V8.83979C18.5009 8.66979 18.3609 8.52979 18.2009 8.52979H19.1909C20.5809 8.52979 21.7209 9.66979 21.7209 11.0798Z" stroke="#1E2528" stroke-width="1.2" stroke-linecap="round" stroke-linejoin="round"/>
<path d="M13.6406 14.2197H18.8806" stroke="#1E2528" stroke-width="1.2" stroke-linecap="round" stroke-linejoin="round"/>
<path d="M13.6406 18.0923H17.1806" stroke="#1E2528" stroke-width="1.2" stroke-linecap="round" stroke-linejoin="round"/>
<path d="M18.5008 8.84004V10.2C18.5008 10.36 18.3708 10.5 18.2008 10.5H14.3508C14.1808 10.5 14.0508 10.36 14.0508 10.2V8.84004C14.0508 8.67004 14.1808 8.53004 14.3508 8.53004H15.2008V8.16004C15.2008 7.54004 15.7008 7.04004 16.3208 7.04004C16.9408 7.04004 17.4408 7.54004 17.4408 8.16004V8.53004H18.2008C18.3608 8.53004 18.5008 8.67004 18.5008 8.84004Z" stroke="#1E2528" stroke-width="1.2" stroke-linejoin="round"/>
</g>
<defs>
<clipPath id="clip0_3038_4094">
<rect width="23" height="23.09" fill="white"/>
</clipPath>
</defs>
</svg>
