<svg width="23" height="24" viewBox="0 0 23 24" fill="none" xmlns="http://www.w3.org/2000/svg">
<path d="M8.75953 18.34C8.75953 18.92 9.23953 19.39 9.81953 19.39H15.5695V20.23C15.5695 21.12 14.8395 21.85 13.9495 21.85H2.38953C1.49953 21.85 0.769531 21.12 0.769531 20.23V4.62C0.769531 3.73 1.49953 3 2.38953 3H4.05953C3.81953 3.26 3.66953 3.61 3.66953 4C3.66953 4.15 3.68953 4.29 3.73953 4.42C3.72953 4.43 3.72953 4.44 3.74953 4.45C3.75953 4.53 3.79953 4.61 3.84953 4.69C3.86953 4.75 3.90953 4.81 3.95953 4.87C4.19953 5.22 4.58953 5.45 5.03953 5.49C5.07953 5.5 5.12953 5.5 5.16953 5.5H11.1695C11.1695 5.5 11.2595 5.5 11.2995 5.49C11.7495 5.45 12.1395 5.22 12.3795 4.87C12.4295 4.81 12.4695 4.75 12.4895 4.69C12.5395 4.61 12.5795 4.53 12.5895 4.45C12.6095 4.44 12.6095 4.43 12.5895 4.42C12.6395 4.29 12.6595 4.15 12.6595 4C12.6595 3.61 12.5095 3.26 12.2695 3H13.9395C14.8295 3 15.5595 3.73 15.5595 4.62V9.53H9.80953C9.22953 9.53 8.74953 10 8.74953 10.58V18.34H8.75953Z" stroke="#1E2528" stroke-width="1.1" stroke-linecap="round" stroke-linejoin="round"/>
<path d="M5.03898 5.49012C4.58898 5.45012 4.19898 5.22012 3.95898 4.87012C4.21898 5.20012 4.60898 5.43012 5.03898 5.49012Z" stroke="#1E2528" stroke-width="1.1" stroke-linecap="round" stroke-linejoin="round"/>
<path d="M12.3788 4.87012C12.1388 5.22012 11.7488 5.45012 11.2988 5.49012C11.7288 5.43012 12.1188 5.20012 12.3788 4.87012Z" stroke="#1E2528" stroke-width="1.1" stroke-linecap="round" stroke-linejoin="round"/>
<path d="M12.6697 4C12.6697 4.15 12.6497 4.29 12.5997 4.42C12.6097 4.43 12.5997 4.44 12.5997 4.45C12.5897 4.53 12.5497 4.61 12.4997 4.69C12.4697 4.75 12.4297 4.81 12.3897 4.87C12.1497 5.22 11.7597 5.45 11.3097 5.49C11.2697 5.5 11.2197 5.5 11.1797 5.5H5.17969C5.17969 5.5 5.08969 5.5 5.04969 5.49C4.59969 5.45 4.20969 5.22 3.96969 4.87C3.92969 4.81 3.88969 4.75 3.85969 4.69C3.80969 4.61 3.76969 4.53 3.75969 4.45C3.74969 4.44 3.73969 4.43 3.74969 4.42C3.69969 4.29 3.67969 4.15 3.67969 4C3.67969 3.61 3.82969 3.26 4.06969 3C4.33969 2.69 4.73969 2.5 5.17969 2.5H6.17969C6.17969 1.95 6.40969 1.45 6.76969 1.09C7.12969 0.72 7.62969 0.5 8.17969 0.5C8.72969 0.5 9.22969 0.72 9.58969 1.09C9.94969 1.45 10.1797 1.95 10.1797 2.5H11.1797C11.6197 2.5 12.0197 2.69 12.2897 3C12.5297 3.26 12.6797 3.61 12.6797 4H12.6697Z" stroke="#1E2528" stroke-width="1.1" stroke-linecap="round" stroke-linejoin="round"/>
<path d="M22.3798 10.5798V18.3398C22.3798 18.9198 21.8998 19.3898 21.3198 19.3898H9.81977C9.23977 19.3898 8.75977 18.9198 8.75977 18.3398V10.5798C8.75977 9.99979 9.23977 9.52979 9.81977 9.52979H21.3198C21.8998 9.52979 22.3798 9.99979 22.3798 10.5798Z" stroke="#1E2528" stroke-width="1.1" stroke-linecap="round" stroke-linejoin="round"/>
<path d="M12.9707 9.52996V8.69996C12.9707 8.14996 13.4107 7.70996 13.9607 7.70996H17.2007C17.7507 7.70996 18.1907 8.14996 18.1907 8.69996V9.52996" stroke="#1E2528" stroke-width="1.1" stroke-linecap="round" stroke-linejoin="round"/>
<path d="M8.75977 15.0801C8.75977 15.0801 12.2098 15.5601 12.2398 19.2801" stroke="#1E2528" stroke-width="1.1" stroke-linecap="round" stroke-linejoin="round"/>
<path d="M22.3804 15.0801C22.3804 15.0801 18.9304 15.5601 18.9004 19.2801" stroke="#1E2528" stroke-width="1.1" stroke-linecap="round" stroke-linejoin="round"/>
</svg>
