<svg width="23" height="23" viewBox="0 0 23 23" fill="none" xmlns="http://www.w3.org/2000/svg">
<g clip-path="url(#clip0_3038_3973)">
<path d="M12.5107 5.17014V8.04014H11.6807C11.0207 8.04014 10.4807 8.58014 10.4807 9.24014V14.9501H2.0107C1.4307 14.9501 0.970703 14.4901 0.970703 13.9101V2.18014C0.970703 1.60014 1.4307 1.14014 2.0107 1.14014H8.4307C8.7007 1.14014 8.9607 1.25014 9.1507 1.44014L12.2007 4.44014C12.4007 4.63014 12.5107 4.90014 12.5107 5.17014Z" stroke="#1E2528" stroke-width="1.2" stroke-linecap="round" stroke-linejoin="round"/>
<path d="M20.8205 8.04004H11.6805C11.0177 8.04004 10.4805 8.5773 10.4805 9.24004V20.65C10.4805 21.3128 11.0177 21.85 11.6805 21.85H20.8205C21.4832 21.85 22.0205 21.3128 22.0205 20.65V9.24004C22.0205 8.5773 21.4832 8.04004 20.8205 8.04004Z" stroke="#1E2528" stroke-width="1.2" stroke-linecap="round" stroke-linejoin="round"/>
<path d="M8.68945 1.18018V4.79018H12.4395" stroke="#1E2528" stroke-width="1.2" stroke-linecap="round" stroke-linejoin="round"/>
<path d="M10.5605 18.5702L15.5805 14.7302C16.7605 13.8302 18.3905 13.8002 19.6005 14.6602L22.0205 16.3802" stroke="#1E2528" stroke-width="1.2" stroke-linecap="round" stroke-linejoin="round"/>
<path d="M13.7502 13.3099C14.6283 13.3099 15.3402 12.598 15.3402 11.7199C15.3402 10.8418 14.6283 10.1299 13.7502 10.1299C12.872 10.1299 12.1602 10.8418 12.1602 11.7199C12.1602 12.598 12.872 13.3099 13.7502 13.3099Z" stroke="#1E2528" stroke-width="1.2" stroke-linecap="round" stroke-linejoin="round"/>
<path d="M3.40039 7.31006L7.375 7.2817" stroke="#1E2528" stroke-width="1.2" stroke-linecap="round" stroke-linejoin="round"/>
<path d="M3.36914 10.9189H4.70914" stroke="#1E2528" stroke-width="1.2" stroke-linecap="round" stroke-linejoin="round"/>
</g>
<defs>
<clipPath id="clip0_3038_3973">
<rect width="23" height="23" fill="white"/>
</clipPath>
</defs>
</svg>
