<svg width="23" height="23" viewBox="0 0 23 23" fill="none" xmlns="http://www.w3.org/2000/svg">
<g clip-path="url(#clip0_3038_3994)">
<path d="M10.8905 20.23H2.68055C1.78055 20.23 1.06055 19.5 1.06055 18.61V17.33H6.91055V16.52C6.91055 15.84 6.36055 15.29 5.68055 15.29C5.68055 15.29 6.55055 15.32 6.84055 15.38C7.31055 15.46 7.76055 15.61 8.17055 15.83C9.79055 16.63 10.8905 18.3 10.8905 20.23Z" stroke="#1E2528" stroke-width="1.1" stroke-linecap="round" stroke-linejoin="round"/>
<path d="M6.91055 16.5098V17.3198H1.06055V16.7598C1.06055 15.9398 1.72055 15.2798 2.54055 15.2798H5.68055C6.36055 15.2798 6.91055 15.8298 6.91055 16.5098Z" stroke="#1E2528" stroke-width="1.1" stroke-linecap="round" stroke-linejoin="round"/>
<path d="M6.91055 15.3998V17.3198H1.06055V16.8498C1.06055 15.9798 1.76055 15.2798 2.63055 15.2798H6.79055C6.85055 15.2798 6.91055 15.3298 6.91055 15.3998Z" stroke="#1E2528" stroke-width="1.1" stroke-linecap="round" stroke-linejoin="round"/>
<path d="M6.88133 15.8698C6.90133 14.0598 5.43133 12.5898 3.62133 12.5898H1.86133" stroke="#1E2528" stroke-width="1.1" stroke-linecap="round" stroke-linejoin="round"/>
<path d="M21.9406 17.48H13.8906C13.8906 16.36 14.3506 15.34 15.1006 14.61C15.5606 14.16 16.1206 13.82 16.7506 13.63V3.94002C16.7506 3.29002 17.2706 2.77002 17.9206 2.77002C18.5706 2.77002 19.0906 3.29002 19.0906 3.94002V13.63C19.7306 13.83 20.3006 14.18 20.7606 14.64C21.4906 15.37 21.9406 16.37 21.9406 17.48Z" stroke="#1E2528" stroke-width="1.1" stroke-linecap="round" stroke-linejoin="round"/>
<path d="M21.9401 17.48V19.41C21.9401 19.86 21.6306 20.22 21.2437 20.22H16.6875V17.48H21.9401Z" stroke="#1E2528" stroke-width="1.1" stroke-linecap="round" stroke-linejoin="round"/>
<path d="M19.1562 17.7188L19.1426 20.199" stroke="#1E2528" stroke-width="1.1" stroke-linecap="round" stroke-linejoin="round"/>
<path d="M16.6875 17.48H13.8906V20.22H16.6875V17.48Z" stroke="#1E2528" stroke-width="1.1" stroke-linecap="round" stroke-linejoin="round"/>
<path d="M15.3705 9.60986L15.1005 14.6199C14.3505 15.3499 13.8905 16.3699 13.8905 17.4899V20.2299H10.8905C10.8905 18.2999 9.79055 16.6299 8.17055 15.8299L7.56055 9.60986H15.3705Z" stroke="#1E2528" stroke-width="1.1" stroke-linecap="round" stroke-linejoin="round"/>
<path d="M12.7996 11.5001C12.7996 11.5001 12.9596 6.06007 9.51961 6.32007C7.19961 6.49007 8.61961 9.61007 8.61961 9.61007" stroke="#1E2528" stroke-width="1.1" stroke-linecap="round" stroke-linejoin="round"/>
</g>
<defs>
<clipPath id="clip0_3038_3994">
<rect width="23" height="23" fill="white"/>
</clipPath>
</defs>
</svg>
