<svg width="23" height="24" viewBox="0 0 23 24" fill="none" xmlns="http://www.w3.org/2000/svg">
<g clip-path="url(#clip0_3038_4010)">
<path d="M16.0305 4.94031V11.5503C15.7605 11.5203 15.4805 11.5003 15.2005 11.5003C11.5705 11.5003 8.63047 14.4403 8.63047 18.0703V20.5003C8.63047 21.4203 9.38047 22.1703 10.3105 22.1703H2.85047C1.96047 22.1703 1.23047 21.4403 1.23047 20.5503V4.94031C1.23047 4.05031 1.96047 3.32031 2.85047 3.32031H4.52047C4.28047 3.58031 4.13047 3.93031 4.13047 4.32031C4.13047 4.39031 4.13047 4.45031 4.15047 4.51031C4.15047 4.59031 4.17047 4.66031 4.20047 4.73031C4.19047 4.74031 4.19047 4.76031 4.21047 4.77031C4.23047 4.86031 4.26047 4.94031 4.31047 5.01031C4.58047 5.50031 5.14047 5.82031 5.73047 5.82031H11.5305C12.1205 5.82031 12.6805 5.50031 12.9505 5.01031C13.0005 4.94031 13.0305 4.86031 13.0505 4.77031C13.0705 4.76031 13.0705 4.74031 13.0505 4.73031C13.0805 4.66031 13.1005 4.59031 13.1005 4.51031C13.1205 4.45031 13.1205 4.39031 13.1205 4.32031C13.1205 3.93031 12.9705 3.58031 12.7305 3.32031H14.4005C15.2905 3.32031 16.0205 4.05031 16.0205 4.94031H16.0305Z" stroke="#1E2528" stroke-width="1.2" stroke-linecap="round" stroke-linejoin="round"/>
<path d="M13.1309 4.33008C13.1309 5.16008 12.4609 5.83008 11.6309 5.83008H5.63086C4.80086 5.83008 4.13086 5.16008 4.13086 4.33008C4.13086 3.94008 4.28086 3.59008 4.52086 3.33008C4.79086 3.02008 5.19086 2.83008 5.63086 2.83008H6.63086C6.63086 2.28008 6.86086 1.78008 7.22086 1.42008C7.58086 1.05008 8.08086 0.830078 8.63086 0.830078C9.18086 0.830078 9.68086 1.05008 10.0409 1.42008C10.4009 1.78008 10.6309 2.28008 10.6309 2.83008H11.6309C12.0709 2.83008 12.4709 3.02008 12.7409 3.33008C12.9809 3.59008 13.1309 3.94008 13.1309 4.33008Z" stroke="#1E2528" stroke-width="1.2" stroke-linecap="round" stroke-linejoin="round"/>
<path d="M21.7709 18.07V20.6C21.7709 21.47 21.0609 22.17 20.1909 22.17H10.3109C9.38086 22.17 8.63086 21.42 8.63086 20.5V18.07C8.63086 14.44 11.5709 11.5 15.2009 11.5C15.4809 11.5 15.7609 11.52 16.0309 11.55C17.5209 11.74 18.8409 12.42 19.8509 13.42C21.0409 14.61 21.7709 16.26 21.7709 18.07Z" stroke="#1E2528" stroke-width="1.2" stroke-linecap="round" stroke-linejoin="round"/>
<path d="M12.375 16.1177L18.125 16.1244" stroke="#1E2528" stroke-width="1.2" stroke-linecap="round" stroke-linejoin="round"/>
<path d="M20.0608 13.6603V12.3903C20.0608 9.69025 17.8708 7.51025 15.1808 7.51025C12.4808 7.51025 10.3008 9.70025 10.3008 12.3903V13.7103" stroke="#1E2528" stroke-width="1.2" stroke-linecap="round" stroke-linejoin="round"/>
</g>
<defs>
<clipPath id="clip0_3038_4010">
<rect width="22.95" height="23.08" fill="white"/>
</clipPath>
</defs>
</svg>
