<svg width="18" height="18" viewBox="0 0 18 18" fill="none" xmlns="http://www.w3.org/2000/svg">
<path d="M2.23077 11.4611C2.23077 11.1212 1.95525 10.8457 1.61539 10.8457C1.27552 10.8457 1 11.1212 1 11.4611V11.5061C0.999984 12.6282 0.99997 13.5327 1.09561 14.244C1.19491 14.9826 1.40733 15.6044 1.90121 16.0983C2.39509 16.5922 3.01694 16.8046 3.75549 16.9039C4.46685 16.9996 5.37132 16.9995 6.49344 16.9995H11.5066C12.6287 16.9995 13.5332 16.9996 14.2445 16.9039C14.9831 16.8046 15.6049 16.5922 16.0988 16.0983C16.5927 15.6044 16.8051 14.9826 16.9044 14.244C17 13.5327 17 12.6282 17 11.5061V11.4611C17 11.1212 16.7245 10.8457 16.3846 10.8457C16.0447 10.8457 15.7692 11.1212 15.7692 11.4611C15.7692 12.6388 15.7679 13.4603 15.6846 14.08C15.6037 14.6821 15.4556 15.0009 15.2285 15.228C15.0014 15.4551 14.6826 15.6032 14.0805 15.6841C13.4607 15.7674 12.6393 15.7688 11.4615 15.7688H6.53846C5.36068 15.7688 4.53926 15.7674 3.91948 15.6841C3.31741 15.6032 2.99858 15.4551 2.7715 15.228C2.54441 15.0009 2.39635 14.6821 2.3154 14.08C2.23208 13.4603 2.23077 12.6388 2.23077 11.4611Z" fill="#935ED6"/>
<path d="M8.64839 1.20014C8.76497 1.07263 8.92979 1 9.10256 1C9.27534 1 9.44015 1.07263 9.55673 1.20014L12.8388 4.78988C13.0681 5.04072 13.0507 5.42997 12.7999 5.6593C12.549 5.88863 12.1598 5.8712 11.9304 5.62037L9.71795 3.20045L9.71794 12.282C9.71794 12.6219 9.44243 12.8974 9.10256 12.8974C8.76269 12.8974 8.48717 12.6219 8.48717 12.282L8.48718 3.20045L6.27468 5.62037C6.04535 5.8712 5.6561 5.88863 5.40527 5.6593C5.15444 5.42997 5.13701 5.04072 5.36634 4.78988L8.64839 1.20014Z" fill="#935ED6"/>
</svg>
